<?xml version="1.0" standalone="no"?>
<!DOCTYPE svg PUBLIC "-//W3C//DTD SVG 20010904//EN"
 "http://www.w3.org/TR/2001/REC-SVG-20010904/DTD/svg10.dtd">
<svg version="1.0" xmlns="http://www.w3.org/2000/svg"
 width="2327.000000pt" height="1800.000000pt" viewBox="0 0 2327.000000 1800.000000"
 preserveAspectRatio="xMidYMid meet">
<metadata>
Created by potrace 1.16, written by Peter Selinger 2001-2019
</metadata>
<g transform="translate(0.000000,1800.000000) scale(0.100000,-0.100000)"
fill="#000000" stroke="none">
<path d="M8650 17580 c0 -6 -33 -10 -77 -10 -47 0 -73 -4 -65 -9 19 -12 -8
-21 -60 -21 -31 0 -39 -3 -35 -14 6 -16 -13 -26 -49 -26 -15 0 -24 -6 -24 -15
0 -10 -10 -15 -26 -15 -21 0 -25 -4 -21 -20 3 -10 2 -19 -2 -18 -3 0 -21 0
-38 -1 -26 -1 -33 -5 -33 -21 0 -14 -7 -20 -21 -20 -12 0 -17 -4 -14 -11 4 -6
-2 -13 -13 -16 -11 -3 -23 -16 -26 -29 -4 -13 -13 -24 -21 -24 -8 0 -15 -4
-15 -10 0 -5 -7 -10 -15 -10 -8 0 -15 -9 -15 -20 0 -13 -7 -20 -18 -20 -12 0
-21 -12 -28 -32 -5 -18 -15 -32 -22 -30 -7 1 -12 -8 -12 -23 0 -18 -5 -25 -20
-25 -16 0 -20 -7 -20 -34 0 -25 -5 -35 -20 -39 -17 -4 -20 -14 -20 -64 0 -32
5 -64 10 -69 17 -17 1 -46 -21 -39 -18 6 -19 -3 -19 -205 0 -185 2 -211 15
-206 12 4 15 -4 15 -45 0 -42 3 -52 20 -56 14 -4 20 -14 20 -33 0 -20 6 -31
20 -35 11 -3 20 -14 20 -24 0 -10 9 -30 20 -44 11 -14 20 -30 20 -35 0 -5 9
-12 20 -15 13 -3 18 -10 14 -21 -4 -12 0 -16 15 -16 12 0 21 -6 21 -15 0 -9 7
-18 15 -21 8 -4 15 -12 15 -20 0 -8 7 -14 15 -14 9 0 18 -7 21 -15 4 -8 13
-15 21 -15 8 0 17 -9 20 -20 3 -11 14 -20 24 -20 12 0 19 -7 19 -20 0 -16 7
-20 30 -20 19 0 30 -5 30 -14 0 -7 13 -16 29 -19 16 -3 36 -13 44 -22 9 -8 31
-15 51 -15 19 0 41 -7 50 -15 8 -8 33 -15 56 -15 45 0 84 -16 75 -31 -4 -5 43
-9 120 -9 77 0 124 4 120 9 -10 17 32 31 93 31 44 0 61 4 66 15 3 10 19 15 47
15 32 0 40 3 36 14 -4 9 1 17 12 21 11 3 22 16 25 28 4 14 9 18 13 11 5 -7 22
-9 41 -7 23 4 32 11 32 24 0 13 7 19 24 19 19 0 25 7 32 38 4 22 9 30 11 20 5
-22 29 -24 37 -3 3 8 12 15 21 15 8 0 15 9 15 20 0 11 7 20 15 20 8 0 15 7 15
15 0 8 7 15 16 15 10 0 14 6 11 14 -3 8 1 17 10 20 8 4 13 13 9 21 -3 10 1 15
13 15 15 0 21 10 26 40 4 22 11 40 16 40 5 0 9 5 9 11 0 16 26 39 35 31 4 -4
5 14 1 39 -6 42 -5 48 19 63 23 15 25 22 25 96 0 47 4 80 10 80 6 0 10 -4 10
-10 0 -5 5 -10 10 -10 6 0 10 40 10 101 0 92 -2 101 -20 106 -18 5 -20 14 -20
94 0 82 -2 89 -20 89 -17 0 -20 7 -20 40 0 24 -4 39 -11 37 -6 -1 -16 12 -22
28 -5 17 -16 34 -23 38 -8 4 -14 21 -14 37 0 23 -5 30 -20 30 -13 0 -20 7 -20
20 0 11 -7 20 -15 20 -8 0 -15 9 -15 20 0 22 -15 27 -26 8 -12 -19 -32 19 -28
52 3 26 0 30 -20 30 -25 0 -76 38 -76 58 0 7 -9 12 -20 12 -13 0 -20 7 -20 20
0 16 -7 20 -30 20 -19 0 -30 5 -30 14 0 9 -15 17 -39 21 -29 5 -38 11 -34 21
4 11 -6 14 -46 14 -37 0 -53 4 -57 15 -5 11 -22 15 -65 15 -33 0 -59 4 -59 10
0 6 -42 10 -105 10 -63 0 -105 -4 -105 -10z"/>
<path d="M22640 16405 c0 -8 -7 -15 -16 -15 -9 0 -18 -9 -21 -20 -3 -11 -12
-20 -19 -20 -8 0 -14 -7 -14 -15 0 -8 -9 -15 -20 -15 -13 0 -20 -7 -20 -20 0
-11 -7 -20 -15 -20 -8 0 -15 -9 -15 -20 0 -15 -7 -20 -25 -20 -14 0 -24 -3
-24 -7 3 -21 -2 -33 -15 -33 -8 0 -16 -7 -20 -15 -3 -8 -12 -15 -21 -15 -8 0
-15 -7 -15 -15 0 -8 -9 -15 -20 -15 -11 0 -20 -7 -20 -15 0 -9 -13 -18 -31
-22 -20 -4 -28 -10 -25 -19 4 -10 -3 -14 -20 -14 -20 0 -25 -4 -20 -16 4 -10
0 -18 -13 -21 -11 -3 -21 -13 -24 -24 -3 -10 -12 -19 -21 -19 -9 0 -16 -7 -16
-15 0 -9 -9 -15 -25 -15 -15 0 -25 -6 -25 -15 0 -8 -11 -17 -25 -21 -14 -3
-25 -12 -25 -20 0 -8 -9 -14 -20 -14 -13 0 -20 -7 -20 -20 0 -15 -7 -20 -25
-20 -19 0 -25 -5 -23 -17 2 -13 -5 -19 -24 -21 -18 -2 -25 -8 -22 -17 4 -9 -3
-16 -19 -20 -14 -4 -28 -13 -31 -21 -3 -8 -12 -14 -21 -14 -8 0 -15 -7 -15
-15 0 -8 -9 -15 -20 -15 -13 0 -20 -7 -20 -20 0 -15 -7 -20 -25 -20 -18 0 -25
-5 -25 -20 0 -15 -7 -20 -25 -20 -14 0 -24 -5 -22 -11 1 -6 -7 -16 -18 -22
-11 -7 -24 -18 -28 -24 -4 -7 -15 -13 -22 -13 -8 0 -15 -7 -15 -15 0 -8 -9
-24 -20 -35 -11 -11 -20 -29 -20 -40 0 -11 -7 -20 -15 -20 -8 0 -16 -8 -17
-17 0 -10 -2 -24 -2 -31 -1 -7 -6 -16 -12 -20 -6 -4 -13 -15 -17 -24 -3 -10
-13 -18 -22 -18 -9 0 -15 -9 -15 -24 0 -14 -5 -37 -11 -53 -8 -22 -12 -24 -19
-13 -7 10 -10 -1 -10 -37 0 -46 -3 -53 -20 -53 -18 0 -20 -7 -20 -70 0 -55 -3
-70 -15 -70 -23 0 -26 -30 -23 -273 2 -176 0 -227 -9 -227 -7 0 -13 -9 -13
-20 0 -15 -7 -20 -29 -20 -20 0 -30 -6 -34 -20 -3 -14 -14 -20 -31 -20 -16 0
-26 -6 -26 -15 0 -10 -10 -15 -30 -15 -21 0 -30 -5 -30 -16 0 -9 -9 -18 -20
-21 -11 -3 -20 -12 -20 -19 0 -8 -8 -14 -19 -14 -14 0 -21 -10 -25 -35 -4 -21
-13 -35 -21 -35 -8 0 -15 -9 -15 -20 0 -14 -7 -20 -21 -20 -19 0 -21 -4 -16
-35 4 -27 2 -35 -9 -35 -16 0 -38 -46 -28 -61 3 -5 -7 -9 -21 -9 -19 0 -25 -5
-23 -17 2 -11 -5 -19 -17 -21 -11 -3 -26 -13 -33 -23 -8 -12 -25 -19 -45 -19
-21 0 -28 -3 -19 -9 17 -10 -6 -21 -45 -21 -18 0 -24 -4 -19 -15 4 -11 -3 -17
-24 -22 -17 -3 -30 -12 -30 -19 0 -9 -12 -14 -35 -14 -29 0 -35 -4 -33 -17 2
-13 -5 -19 -25 -21 -27 -3 -28 -5 -25 -60 l3 -57 129 -3 c109 -2 128 0 123 12
-5 11 6 16 49 22 36 4 54 11 54 20 0 8 9 14 20 14 13 0 20 7 20 20 0 13 7 20
20 20 13 0 20 7 20 20 0 11 7 20 15 20 8 0 17 14 21 36 4 24 13 38 25 41 15 4
19 15 19 49 0 32 4 44 15 44 8 0 15 9 15 20 0 11 6 20 14 20 7 0 16 9 19 20 3
14 14 20 31 20 16 0 26 6 26 15 0 11 11 15 40 15 33 0 40 3 38 18 -2 11 4 18
20 20 14 2 22 10 22 23 0 12 7 19 20 19 11 0 20 6 20 14 0 7 9 16 20 19 11 3
20 12 20 21 0 9 8 16 20 16 16 0 20 7 20 35 0 24 5 35 15 35 15 0 19 15 15 58
-1 14 4 22 14 22 15 0 19 10 31 68 4 17 11 32 16 32 5 0 9 44 10 98 1 105 15
298 17 245 1 -18 6 -33 11 -33 7 0 16 292 13 422 -1 11 10 19 29 23 16 4 27
11 24 16 -3 4 6 11 20 15 17 4 24 11 21 20 -4 10 2 14 19 14 18 0 25 5 25 20
0 14 7 20 24 20 15 0 26 7 29 20 3 13 14 20 30 20 17 0 24 5 23 17 0 10 8 19
22 22 13 3 23 11 22 16 0 6 11 11 25 13 18 2 25 8 21 18 -4 10 2 14 20 14 17
0 28 7 31 20 3 11 14 20 24 20 12 0 19 7 19 20 0 13 7 20 19 20 10 0 21 9 24
20 3 12 14 20 27 20 12 0 18 4 15 10 -4 6 7 13 24 16 21 5 31 12 31 25 0 12 7
19 20 19 11 0 20 7 20 15 0 8 9 15 20 15 13 0 20 7 20 20 0 13 7 20 20 20 11
0 20 7 20 15 0 8 6 15 13 15 7 0 20 9 30 20 9 11 26 20 37 20 13 0 18 5 13 16
-4 10 1 17 16 21 11 3 21 12 21 19 0 8 9 14 21 14 15 0 19 4 15 16 -4 11 1 18
14 21 11 3 20 12 20 20 0 8 9 17 20 20 11 3 17 10 14 15 -3 5 3 12 14 15 11 2
22 13 25 24 3 10 12 19 21 19 9 0 18 13 22 35 3 20 12 35 20 35 8 0 14 6 14
14 0 7 9 16 20 19 15 4 20 14 20 41 0 20 5 36 10 36 6 0 10 25 10 55 0 54 0
55 -30 55 -20 0 -30 -5 -30 -15z"/>
<path d="M9863 16266 c6 -16 -13 -26 -50 -26 -27 0 -58 -25 -48 -40 4 -6 -6
-7 -26 -3 -24 4 -34 2 -41 -10 -5 -10 -16 -17 -23 -17 -8 0 -15 -7 -15 -15 0
-8 -9 -15 -20 -15 -13 0 -20 -7 -20 -20 0 -13 -7 -20 -20 -20 -11 0 -20 -7
-20 -15 0 -8 -7 -15 -15 -15 -8 0 -15 -9 -15 -20 0 -14 -7 -20 -21 -20 -12 0
-23 -8 -26 -20 -4 -13 -14 -20 -30 -20 -14 0 -21 -4 -18 -10 3 -6 -5 -14 -19
-20 -14 -5 -26 -16 -26 -25 0 -8 -9 -15 -20 -15 -11 0 -20 -7 -20 -15 0 -10
-10 -15 -30 -15 -23 0 -30 -4 -30 -20 0 -13 -7 -20 -19 -20 -10 0 -21 -9 -24
-20 -4 -15 -14 -20 -40 -20 -26 0 -36 -5 -40 -20 -4 -15 -14 -20 -40 -20 -22
0 -37 -6 -41 -15 -4 -11 -21 -15 -62 -15 -46 0 -55 -3 -50 -15 5 -13 -29 -15
-264 -15 -235 0 -269 2 -264 15 4 10 0 15 -14 15 -11 0 -23 -8 -25 -17 -4 -17
-5 -17 -6 0 -1 11 -9 17 -26 17 -14 0 -28 7 -31 15 -4 9 -19 15 -40 15 -31 0
-39 8 -35 33 0 4 -15 7 -35 7 -27 0 -37 5 -41 20 -4 14 -14 20 -34 20 -22 0
-29 5 -29 20 0 16 -7 20 -30 20 -22 0 -28 4 -24 15 5 11 -1 15 -21 15 -18 0
-29 6 -32 20 -3 11 -14 20 -24 20 -11 0 -19 7 -19 15 0 8 -7 15 -15 15 -8 0
-15 9 -15 20 0 13 -7 20 -20 20 -11 0 -20 -5 -20 -10 0 -7 -6 -7 -20 0 -14 7
-20 21 -20 44 0 26 -5 35 -21 39 -12 3 -18 10 -15 16 4 5 -3 15 -14 21 -11 6
-18 15 -15 21 4 5 -3 9 -14 9 -12 0 -21 7 -21 15 0 8 -9 15 -20 15 -13 0 -20
7 -20 20 0 19 -7 20 -109 20 -117 0 -104 4 -259 -81 -116 -64 -308 -197 -347
-240 -44 -50 -56 -64 -167 -194 -42 -49 -122 -142 -178 -205 -55 -63 -107
-128 -115 -144 -18 -35 -20 -129 -3 -159 18 -35 46 -55 147 -104 53 -25 188
-91 301 -146 113 -54 252 -122 309 -149 153 -73 327 -182 516 -322 61 -45 121
-89 135 -99 14 -9 52 -37 85 -62 115 -87 31 -81 995 -75 565 3 853 8 850 15
-3 6 25 11 73 13 64 2 77 0 77 -13 0 -8 6 -15 14 -15 22 0 46 -29 46 -56 0
-17 5 -24 20 -24 18 0 20 -7 20 -67 0 -36 3 -64 6 -60 16 16 29 -20 26 -72 -3
-46 0 -61 17 -80 19 -22 21 -37 21 -153 0 -114 8 -154 23 -115 3 6 5 -103 5
-243 0 -140 -2 -249 -5 -242 -15 38 -23 -3 -23 -123 0 -113 2 -135 15 -135 12
0 15 -14 15 -70 0 -63 2 -70 20 -70 13 0 20 -7 20 -20 0 -13 7 -20 20 -20 13
0 20 -7 20 -20 0 -15 7 -20 25 -20 18 0 25 -5 25 -20 0 -16 7 -20 35 -20 24 0
35 -5 35 -14 0 -11 14 -16 50 -18 28 -2 50 -7 49 -13 -1 -15 32 -24 99 -24 50
-1 67 3 84 19 12 11 32 20 45 20 13 0 23 6 23 13 0 7 9 18 20 25 13 8 20 23
20 42 0 20 5 30 15 30 12 0 15 13 13 63 -2 69 5 89 27 81 10 -4 15 5 17 33 2
29 7 37 19 35 14 -2 18 11 21 85 2 49 0 91 -5 94 -5 4 -6 21 -2 38 5 22 12 31
26 31 13 0 20 6 18 18 -4 40 2 62 16 62 13 0 15 22 15 139 0 163 10 275 21
246 4 -11 8 43 8 120 0 79 -3 134 -8 127 -10 -16 -21 65 -21 161 0 60 -2 67
-20 67 -22 0 -26 20 -9 37 8 8 7 24 -5 58 -17 52 -14 65 15 65 23 0 25 16 4
27 -11 6 -15 33 -18 107 -3 78 -7 101 -20 111 -13 9 -17 28 -17 79 0 50 -3 66
-14 66 -19 0 -26 22 -26 86 0 39 -4 54 -14 54 -14 0 -26 42 -26 90 0 16 -5 30
-11 32 -6 2 -14 28 -17 56 -3 37 -8 52 -17 48 -8 -3 -15 8 -19 30 -4 20 -13
34 -21 34 -11 0 -15 14 -15 55 0 48 -2 55 -20 55 -16 0 -20 7 -20 36 0 27 -5
37 -20 41 -14 4 -20 14 -20 33 0 16 -7 30 -15 34 -8 3 -15 17 -15 30 0 15 -8
30 -20 36 -14 8 -20 21 -20 45 0 24 -5 35 -15 35 -10 0 -15 10 -15 30 0 26 -6
32 -40 46 -22 9 -38 20 -35 25 3 4 -4 13 -15 19 -12 6 -20 21 -20 35 0 14 -9
33 -19 42 -11 9 -17 21 -14 26 3 6 2 7 -4 4 -17 -11 -55 23 -50 45 6 23 -1 48
-14 48 -24 0 -49 37 -49 72 0 27 -4 38 -15 38 -8 0 -15 9 -15 20 0 13 -7 20
-20 20 -13 0 -20 7 -20 19 0 23 -23 34 -39 18 -8 -8 -11 -7 -11 6 0 9 -5 17
-12 17 -23 0 -58 52 -58 87 0 24 -5 33 -16 33 -10 0 -14 6 -10 15 4 10 -1 15
-15 15 -11 0 -22 6 -25 14 -3 8 -19 18 -36 21 -19 5 -28 12 -24 20 4 11 -8 15
-47 17 -43 2 -51 6 -49 21 2 14 -4 17 -34 17 -27 0 -35 -4 -31 -14z"/>
<path d="M19892 15825 c-7 -9 -30 -15 -52 -15 -29 0 -40 -4 -40 -15 0 -9 -7
-18 -15 -21 -8 -4 -12 -10 -10 -15 3 -5 -6 -11 -20 -15 -14 -3 -25 -12 -25
-20 0 -8 -10 -14 -25 -14 -18 0 -25 -5 -25 -20 0 -17 -7 -20 -44 -20 -35 0
-45 -4 -49 -20 -5 -19 -14 -20 -176 -20 -146 0 -170 -2 -165 -15 4 -11 -4 -16
-35 -21 -22 -4 -39 -12 -38 -18 1 -6 -13 -12 -31 -14 -24 -2 -32 -7 -28 -18 3
-9 -1 -14 -14 -14 -13 0 -20 -7 -20 -20 0 -13 -7 -20 -20 -20 -13 0 -20 -7
-20 -20 0 -11 -6 -20 -14 -20 -7 0 -16 -9 -19 -20 -3 -11 -12 -20 -21 -20 -9
0 -16 -6 -16 -14 0 -7 -9 -16 -20 -19 -17 -4 -20 -14 -20 -56 l0 -51 51 0 c27
0 48 4 45 9 -7 10 17 21 45 21 11 0 17 5 14 10 -13 21 52 30 216 30 96 0 168
4 165 9 -7 11 27 21 72 21 22 0 32 5 32 15 0 10 10 15 30 15 23 0 30 4 30 20
0 14 7 20 24 20 15 0 26 7 29 20 3 11 12 20 20 20 8 0 17 9 20 20 3 11 12 20
21 20 9 0 16 7 16 15 0 8 9 15 20 15 11 0 20 7 20 15 0 8 9 24 21 36 11 11 18
27 15 36 -4 9 1 17 14 20 11 3 20 14 20 24 0 12 7 19 20 19 17 0 20 7 20 40 0
22 5 40 11 40 13 0 8 52 -6 56 -5 2 -16 -3 -23 -11z"/>
<path d="M20230 15794 c0 -9 -9 -18 -19 -21 -12 -3 -23 -17 -26 -34 -4 -17
-13 -29 -22 -29 -9 0 -13 -6 -9 -15 5 -15 -34 -65 -51 -65 -13 0 -23 -34 -23
-81 0 -29 4 -38 21 -42 12 -3 18 -10 15 -16 -4 -5 6 -11 21 -13 20 -2 27 -8
25 -20 -2 -12 4 -18 18 -18 13 0 20 -7 20 -20 0 -17 7 -20 50 -20 43 0 50 3
50 20 0 13 7 20 19 20 10 0 21 9 24 20 3 11 12 20 21 20 10 0 13 6 9 16 -4 10
1 17 15 21 13 3 23 16 27 34 4 16 13 29 21 29 10 0 14 15 14 59 0 51 -3 61
-20 66 -11 3 -20 13 -20 21 0 8 -9 14 -20 14 -11 0 -20 7 -20 15 0 8 -7 15
-16 15 -9 0 -18 9 -21 20 -4 17 -14 20 -54 20 -38 0 -49 -4 -49 -16z"/>
<path d="M17825 15761 c3 -5 -5 -11 -17 -13 -15 -2 -22 -9 -22 -21 1 -10 -5
-17 -17 -17 -12 0 -19 -7 -19 -20 0 -13 -7 -20 -20 -20 -13 0 -20 -7 -20 -20
0 -13 -7 -20 -20 -20 -11 0 -19 -3 -19 -7 4 -23 -3 -33 -21 -33 -11 0 -20 -7
-20 -15 0 -11 -11 -15 -36 -15 -28 0 -35 -3 -30 -15 4 -12 -3 -15 -35 -15 -32
0 -42 -4 -46 -20 -4 -16 -14 -20 -50 -20 -36 0 -43 -3 -41 -17 2 -14 -5 -19
-33 -21 -27 -2 -38 -9 -42 -23 -4 -14 -14 -19 -36 -19 -21 0 -31 -5 -31 -15 0
-10 -10 -15 -31 -15 -23 0 -30 -4 -26 -14 4 -10 -4 -17 -24 -21 -16 -4 -29
-13 -29 -21 0 -8 -10 -14 -26 -14 -19 0 -25 -4 -20 -15 4 -11 -2 -15 -20 -15
-17 0 -28 -7 -31 -20 -3 -12 -14 -20 -25 -20 -13 0 -18 -5 -15 -14 3 -8 -1
-17 -9 -20 -9 -3 -13 -9 -10 -14 2 -4 1 -14 -5 -22 -6 -10 -9 -11 -9 -2 0 6
-5 12 -11 12 -7 0 -9 -10 -5 -25 5 -20 3 -25 -14 -25 -16 0 -20 -7 -20 -34 0
-26 -5 -36 -20 -41 -15 -5 -20 -15 -20 -41 0 -22 5 -34 14 -34 8 0 17 -15 20
-34 4 -22 13 -36 26 -39 11 -3 20 -12 20 -21 0 -12 10 -16 40 -16 33 0 40 -3
40 -20 0 -18 7 -20 81 -20 76 0 80 -1 74 -20 -6 -20 -2 -20 434 -20 287 0 441
3 441 10 0 6 -8 10 -17 10 -15 0 -16 2 -3 10 8 5 110 10 234 10 184 0 217 2
213 14 -9 23 15 26 184 26 129 0 157 3 153 14 -6 16 62 26 193 26 64 0 93 4
95 13 3 8 40 13 125 15 l120 4 -1 -31 c-1 -22 -6 -31 -18 -31 -15 0 -18 -9
-18 -51 0 -42 -3 -52 -20 -56 -15 -4 -20 -14 -20 -38 0 -24 -5 -34 -20 -38
-18 -5 -20 -14 -20 -111 0 -87 -2 -104 -14 -100 -12 5 -15 -23 -18 -176 -3
-160 -5 -183 -20 -191 -14 -8 -18 -23 -18 -73 0 -48 -4 -65 -15 -70 -11 -4
-15 -21 -15 -61 l0 -55 55 0 55 0 0 35 c0 28 4 35 20 35 16 0 20 7 20 35 0 23
5 35 14 35 18 0 26 22 26 71 0 28 4 39 15 39 11 0 15 12 15 44 0 59 11 111 20
96 10 -16 22 125 19 205 -1 33 1 85 6 115 9 54 9 54 16 20 4 -20 7 24 8 103 1
130 2 137 21 137 18 0 20 7 20 60 l0 60 -51 0 c-31 0 -48 4 -44 10 4 6 62 10
141 10 123 0 135 2 132 18 -3 15 9 17 115 20 96 2 118 5 114 16 -8 21 15 26
124 26 61 0 98 4 94 9 -11 19 35 31 115 31 45 0 79 4 76 9 -10 15 22 21 106
21 67 0 79 2 74 15 -4 13 8 15 74 15 73 0 80 2 80 20 0 18 7 20 71 20 57 0 70
3 66 14 -7 17 13 26 59 26 22 0 33 4 32 12 -2 7 12 17 30 22 20 7 32 16 32 28
0 10 7 18 15 18 10 0 15 10 15 29 0 25 -5 30 -32 36 -57 11 -68 16 -63 26 4 5
-25 9 -68 9 -57 0 -76 -4 -81 -15 -4 -12 -27 -15 -117 -15 -90 0 -110 -3 -106
-14 7 -17 -40 -26 -145 -26 -63 0 -78 -3 -78 -15 0 -13 -20 -15 -121 -15 -104
0 -120 -2 -115 -15 5 -13 -15 -15 -139 -15 -85 0 -146 -4 -150 -10 -3 -5 -1
-10 5 -10 6 0 8 -4 5 -10 -4 -6 -62 -10 -141 -10 -107 0 -134 -3 -134 -14 0
-22 -33 -26 -215 -27 -93 0 -159 -4 -145 -8 53 -15 -16 -24 -225 -31 -115 -3
-201 -8 -190 -10 57 -9 -123 -18 -377 -19 -264 -1 -287 -2 -291 -18 -4 -17 -5
-17 -6 0 -1 16 -25 17 -350 17 -345 0 -426 4 -399 21 8 6 -4 9 -34 9 -25 0
-53 3 -62 6 -25 9 -19 24 9 24 18 0 25 5 25 20 0 15 7 20 25 20 15 0 25 6 25
14 0 17 22 26 66 26 22 0 33 4 32 13 -2 8 12 13 40 15 28 2 42 8 42 18 0 8 3
13 8 12 17 -5 86 15 99 28 8 8 30 14 50 14 27 0 34 3 29 15 -4 11 2 15 24 15
23 0 30 4 30 20 0 13 7 20 20 20 11 0 20 7 20 15 0 7 6 18 13 22 8 4 16 16 20
25 4 12 12 15 23 11 14 -5 16 -3 11 11 -5 13 -1 19 13 23 11 3 20 11 20 18 0
7 9 15 20 18 15 4 20 14 20 37 0 23 5 33 20 37 17 5 20 14 20 59 l0 54 -41 0
c-22 0 -38 -4 -34 -9z"/>
<path d="M20950 14920 c0 -31 -40 -80 -65 -80 -10 0 -15 -11 -15 -35 0 -28 -4
-35 -20 -35 -13 0 -20 -7 -20 -20 0 -11 -7 -20 -15 -20 -11 0 -15 -11 -15 -39
0 -37 2 -40 33 -43 24 -2 31 -7 29 -20 -2 -13 4 -18 23 -18 16 0 25 -6 25 -15
0 -8 9 -15 20 -15 13 0 20 -7 20 -20 0 -17 7 -20 49 -20 40 0 50 3 54 20 3 11
12 20 21 20 9 0 16 7 16 15 0 8 6 15 13 15 12 0 37 44 37 67 0 7 7 10 15 7 13
-5 15 8 15 80 0 69 -3 86 -15 86 -9 0 -12 6 -9 15 4 9 0 15 -10 15 -9 0 -16 7
-16 15 0 9 -12 18 -29 21 -20 4 -28 11 -24 20 4 11 -8 14 -56 14 -61 0 -61 0
-61 -30z"/>
<path d="M20260 14890 c0 -5 -22 -10 -49 -10 -56 0 -61 -8 -61 -97 0 -40 -4
-53 -15 -53 -9 0 -15 -9 -15 -24 0 -45 -13 -86 -26 -86 -22 0 -18 -66 6 -90
23 -23 26 -50 6 -50 -7 0 -16 -9 -19 -20 -8 -33 -25 -23 -32 20 -5 30 -11 40
-26 40 -10 0 -19 6 -19 14 0 7 -14 16 -31 20 -65 13 -139 3 -139 -18 0 -6 -10
-16 -22 -21 -16 -7 -24 -20 -26 -42 -2 -21 -9 -33 -18 -33 -9 0 -14 -11 -14
-35 0 -23 -5 -35 -14 -35 -15 0 -26 -21 -26 -51 0 -10 -7 -19 -15 -19 -12 0
-15 -13 -15 -60 0 -47 3 -60 15 -60 8 0 15 -6 15 -14 0 -8 11 -17 25 -20 16
-4 22 -11 19 -21 -5 -12 7 -15 70 -15 73 0 99 -12 56 -25 -11 -3 -20 -13 -20
-21 0 -8 -9 -14 -20 -14 -13 0 -20 -7 -20 -20 0 -13 -7 -20 -20 -20 -11 0 -20
-7 -20 -15 0 -9 -9 -15 -24 -15 -15 0 -26 -7 -29 -20 -3 -12 -14 -20 -26 -20
-12 0 -21 -6 -21 -15 0 -11 -11 -15 -40 -15 -33 0 -40 -3 -40 -20 0 -13 -7
-20 -20 -20 -13 0 -20 -7 -20 -20 0 -11 -4 -20 -10 -20 -5 0 -10 -15 -10 -34
0 -26 5 -35 23 -40 40 -11 70 -7 64 8 -7 17 21 26 81 26 31 0 42 4 42 15 0 11
12 15 50 15 43 0 50 3 48 18 -2 11 4 18 20 20 12 2 22 10 22 18 0 8 8 18 18
21 22 9 32 23 32 51 0 12 6 22 15 22 8 0 17 14 21 34 4 25 10 33 21 29 10 -4
14 0 13 13 -5 42 1 64 15 64 10 0 15 11 15 35 0 29 4 35 21 35 15 0 19 4 15
16 -4 11 1 18 14 21 11 3 20 14 20 24 0 11 7 19 15 19 9 0 18 13 22 31 3 17
12 33 19 36 7 3 16 20 20 39 3 19 12 34 20 34 9 0 14 12 14 35 0 28 4 35 20
35 19 0 20 7 20 178 0 97 3 194 6 215 5 24 3 37 -5 37 -6 0 -11 -4 -11 -10z"/>
<path d="M22100 14715 c0 -8 -9 -15 -19 -15 -16 0 -20 -8 -23 -37 -2 -30 -7
-37 -20 -35 -13 2 -18 -4 -18 -21 0 -14 -7 -27 -15 -31 -8 -3 -15 -17 -15 -31
0 -16 -6 -25 -15 -25 -8 0 -15 -9 -15 -20 0 -13 -7 -20 -20 -20 -13 0 -20 -7
-20 -20 0 -14 -7 -20 -21 -20 -12 0 -17 -4 -14 -11 4 -6 -2 -13 -13 -16 -11
-2 -22 -13 -25 -24 -3 -10 -12 -19 -21 -19 -9 0 -16 -7 -16 -15 0 -8 -6 -15
-14 -15 -7 0 -16 -9 -19 -20 -3 -11 -12 -20 -21 -20 -9 0 -18 -13 -22 -35 -3
-20 -12 -35 -20 -35 -8 0 -14 -9 -14 -19 0 -10 -7 -21 -15 -25 -8 -3 -15 -14
-15 -24 0 -21 -36 -65 -63 -75 -12 -4 -17 -17 -17 -42 0 -24 -4 -35 -15 -35
-8 0 -15 -7 -15 -15 0 -8 -6 -15 -14 -15 -7 0 -16 -9 -19 -20 -3 -11 -12 -20
-21 -20 -9 0 -16 -7 -16 -15 0 -8 -7 -15 -16 -15 -11 0 -14 -5 -10 -16 4 -10
0 -18 -13 -21 -11 -3 -21 -13 -24 -24 -3 -10 -12 -19 -20 -19 -8 0 -17 -7 -21
-15 -3 -8 -12 -15 -20 -15 -7 0 -16 -9 -19 -20 -3 -14 -14 -20 -32 -20 -20 0
-26 -4 -21 -15 4 -11 -2 -15 -25 -15 -23 0 -29 -4 -27 -17 2 -12 -4 -19 -19
-21 -15 -2 -23 -10 -23 -23 0 -14 -7 -19 -25 -19 -18 0 -25 -5 -25 -20 0 -11
-4 -20 -10 -20 -5 0 -10 -16 -10 -35 l0 -35 50 0 c38 0 50 4 50 15 0 10 10 15
34 15 25 0 35 5 39 20 4 15 14 20 36 20 21 0 31 5 31 15 0 9 9 15 25 15 18 0
25 5 25 20 0 16 7 20 30 20 21 0 30 5 30 16 0 9 9 18 20 21 11 3 20 12 20 19
0 8 9 14 21 14 15 0 19 4 15 16 -4 11 1 18 14 21 11 3 20 12 20 19 0 8 9 14
20 14 13 0 20 7 20 20 0 13 7 20 20 20 13 0 20 7 20 20 0 11 7 20 16 20 8 0
12 5 9 10 -3 6 -1 10 4 10 6 0 11 11 11 25 0 16 6 25 15 25 8 0 15 7 15 15 0
8 7 15 15 15 10 0 17 14 21 40 4 24 12 40 20 40 8 0 14 7 14 15 0 8 9 15 20
15 14 0 20 6 18 18 -2 11 5 18 20 20 16 2 22 8 18 18 -4 10 4 14 30 14 28 0
34 4 32 18 -3 15 9 17 105 20 92 2 108 5 103 18 -4 10 3 16 24 21 17 3 30 11
30 19 0 7 9 16 20 19 14 4 20 15 20 36 0 23 5 29 20 29 12 0 20 6 19 13 -4 33
2 57 16 57 12 0 15 13 15 59 0 51 -3 59 -21 64 -14 4 -20 11 -16 20 4 10 -2
17 -15 20 -11 3 -17 10 -14 15 3 5 -7 22 -23 38 -16 16 -26 34 -24 41 3 8 -3
13 -16 13 -12 0 -21 6 -21 15 0 10 -11 15 -35 15 -24 0 -35 -5 -35 -15z"/>
<path d="M18378 14579 c-13 -7 -18 -23 -18 -54 0 -38 -3 -45 -20 -45 -18 0
-20 -7 -20 -70 0 -53 -4 -71 -16 -78 -10 -5 -18 -28 -21 -56 -5 -41 -8 -46
-25 -40 -18 5 -20 3 -13 -34 5 -31 3 -41 -9 -45 -9 -4 -16 -13 -16 -22 0 -8
-7 -15 -15 -15 -8 0 -15 -5 -15 -10 0 -6 -12 -15 -26 -20 -14 -6 -22 -15 -19
-21 4 -6 -2 -13 -14 -16 -12 -3 -21 -13 -21 -24 0 -12 -7 -19 -20 -19 -11 0
-20 -7 -20 -15 0 -9 -10 -15 -26 -15 -19 0 -25 -4 -21 -14 4 -10 -4 -17 -24
-21 -16 -4 -29 -13 -29 -21 0 -8 -10 -14 -25 -14 -18 0 -25 -5 -25 -20 0 -11
-7 -20 -15 -20 -11 0 -15 -12 -15 -46 l0 -47 53 7 c28 3 71 6 95 6 31 0 42 4
42 15 0 12 13 15 55 15 48 0 55 3 53 18 -2 13 5 18 30 20 24 2 32 8 32 23 0
12 7 19 20 19 13 0 20 7 20 19 0 12 7 18 18 17 12 -1 18 8 20 32 2 19 9 32 17
32 15 0 22 24 23 74 0 16 7 33 16 38 10 6 16 23 16 47 0 59 11 105 21 89 5 -8
9 17 9 62 0 88 7 120 26 120 11 0 14 19 14 80 l0 80 -37 0 c-21 0 -46 -5 -55
-11z"/>
<path d="M18773 14576 c6 -15 -12 -26 -44 -26 -10 0 -19 -7 -19 -15 0 -8 -7
-15 -15 -15 -8 0 -15 -9 -15 -20 0 -13 -7 -20 -20 -20 -13 0 -20 -7 -20 -19 0
-11 -7 -26 -15 -35 -8 -8 -15 -24 -15 -35 0 -14 -6 -21 -20 -21 -19 0 -20 -7
-20 -110 0 -105 1 -110 21 -110 12 0 23 -8 26 -20 5 -18 14 -20 74 -20 39 0
69 -4 69 -10 0 -5 -9 -10 -20 -10 -13 0 -20 -7 -20 -20 0 -11 -6 -20 -14 -20
-7 0 -16 -9 -19 -20 -3 -11 -12 -20 -21 -20 -9 0 -16 -7 -16 -15 0 -9 -9 -15
-25 -15 -16 0 -25 -6 -25 -15 0 -9 -12 -18 -30 -21 -16 -4 -30 -13 -30 -20 0
-9 -12 -14 -35 -14 -28 0 -35 -4 -35 -19 0 -13 -8 -21 -22 -23 -19 -2 -24 -10
-26 -46 -2 -24 2 -50 9 -58 15 -18 59 -18 59 0 0 19 22 26 81 26 37 0 49 4 49
15 0 11 12 15 45 15 38 0 45 3 45 20 0 13 7 20 19 20 10 0 21 9 24 20 3 11 12
20 21 20 9 0 16 7 16 15 0 8 9 15 20 15 16 0 20 7 20 35 0 28 4 35 20 35 17 0
20 7 20 40 0 33 3 40 20 40 17 0 20 7 20 50 0 37 3 48 13 44 11 -4 15 17 20
93 9 130 0 204 -25 211 -10 2 -18 13 -18 23 0 11 -7 19 -15 19 -8 0 -12 6 -9
14 4 9 -7 15 -35 20 -30 5 -39 10 -35 21 4 11 0 15 -16 15 -15 0 -20 -5 -17
-14z"/>
<path d="M17330 14535 c0 -9 -9 -15 -25 -15 -18 0 -25 -5 -25 -20 0 -13 -7
-20 -20 -20 -13 0 -20 -7 -20 -20 0 -11 -5 -20 -11 -20 -5 0 -7 -4 -4 -10 4
-6 -1 -7 -11 -3 -15 5 -16 2 -11 -24 4 -22 2 -33 -8 -37 -8 -3 -19 -24 -25
-47 -6 -23 -18 -48 -26 -56 -23 -23 -16 -132 7 -117 5 3 9 -4 9 -15 0 -11 9
-22 20 -26 11 -4 18 -11 15 -16 -4 -5 28 -9 77 -9 82 -1 83 -1 56 -18 -16 -9
-28 -20 -28 -24 0 -14 -48 -58 -64 -58 -9 0 -16 -7 -16 -16 0 -9 -9 -18 -20
-21 -11 -3 -20 -12 -20 -19 0 -9 -12 -14 -35 -14 -29 0 -35 -4 -33 -17 2 -14
-5 -19 -29 -21 -21 -2 -33 -9 -33 -18 0 -8 -13 -17 -30 -20 -29 -6 -30 -9 -30
-60 0 -53 1 -54 29 -54 16 0 31 6 35 15 4 11 23 15 77 15 57 0 70 3 66 14 -7
17 13 26 54 26 19 0 29 5 29 15 0 10 10 15 31 15 24 0 30 4 25 15 -3 9 1 18 9
21 8 4 15 15 15 25 0 10 7 19 15 19 8 0 15 6 15 14 0 7 10 16 21 19 17 5 21
12 17 36 -4 25 -1 31 14 31 14 0 18 8 18 40 0 33 3 40 20 40 17 0 20 7 21 53
0 45 16 114 18 80 1 -7 6 -13 11 -13 11 0 14 157 4 184 -3 9 -12 16 -20 16 -8
0 -14 10 -14 24 0 35 -10 56 -26 56 -8 0 -14 9 -14 20 0 16 -7 20 -35 20 -26
0 -33 3 -29 15 5 12 -2 15 -30 15 -25 0 -36 -4 -36 -15z"/>
<path d="M20160 13385 c0 -8 -4 -15 -10 -15 -5 0 -10 -7 -10 -15 0 -8 -4 -15
-10 -15 -5 0 -10 -9 -10 -20 0 -13 -7 -20 -20 -20 -17 0 -20 -7 -20 -40 0 -34
-3 -40 -21 -40 -19 0 -21 -5 -17 -49 2 -40 0 -51 -14 -54 -10 -3 -20 -20 -24
-43 -4 -22 -9 -33 -11 -26 -9 24 -25 12 -19 -14 5 -20 3 -27 -14 -31 -14 -4
-20 -14 -20 -33 0 -20 -6 -31 -20 -35 -17 -5 -20 -15 -20 -62 0 -46 3 -56 20
-60 11 -3 20 -12 20 -19 0 -8 9 -14 19 -14 28 0 52 -11 45 -21 -3 -5 27 -9 66
-9 45 0 69 4 65 10 -3 6 1 10 10 10 8 0 20 10 25 23 5 13 9 16 10 7 1 -8 8 -1
15 15 9 19 14 24 15 13 0 -12 8 -18 25 -18 18 0 23 -4 19 -15 -5 -11 1 -15 19
-15 34 0 58 -10 51 -21 -3 -5 15 -9 40 -9 31 0 45 4 44 12 -2 7 7 14 20 16 12
2 22 10 22 17 0 8 9 17 20 20 15 5 20 15 20 41 0 24 5 34 15 34 12 0 15 14 15
65 0 49 -3 65 -14 65 -8 0 -17 14 -21 30 -6 26 -11 30 -41 30 -27 0 -34 4 -34
19 0 16 -8 21 -42 23 -43 4 -43 4 -15 16 26 11 27 15 27 83 0 62 -2 71 -20 76
-11 3 -20 12 -20 19 0 8 -6 14 -14 14 -7 0 -16 9 -19 20 -3 12 -14 20 -26 20
-12 0 -21 6 -21 15 0 11 -12 15 -50 15 -38 0 -50 -4 -50 -15z"/>
<path d="M21883 13170 c-3 -11 -14 -20 -24 -20 -11 0 -19 -7 -19 -15 0 -8 -6
-15 -14 -15 -9 0 -17 -15 -21 -40 -4 -25 -12 -40 -21 -40 -10 0 -14 -15 -14
-59 0 -52 3 -60 23 -66 19 -7 17 -9 -15 -12 -30 -3 -38 -9 -38 -24 0 -12 -7
-19 -20 -19 -16 0 -20 -7 -20 -31 0 -22 -5 -32 -20 -36 -11 -3 -20 -12 -20
-20 0 -8 -9 -17 -20 -20 -17 -5 -20 -14 -20 -60 0 -46 3 -56 20 -60 11 -3 20
-11 20 -18 0 -8 10 -15 23 -17 12 -2 21 -9 20 -16 -2 -6 9 -15 23 -18 16 -4
23 -12 20 -20 -4 -11 6 -14 44 -14 36 0 50 4 50 14 0 8 11 17 25 20 14 4 23
11 20 16 -4 6 1 13 9 16 9 3 16 12 16 20 0 8 10 14 25 14 16 0 25 -6 25 -15 0
-8 9 -15 20 -15 11 0 20 -6 20 -14 0 -19 22 -26 82 -26 41 0 51 3 55 20 3 11
14 20 24 20 11 0 19 7 19 15 0 8 7 15 15 15 9 0 15 9 15 21 0 12 8 23 20 26
17 4 20 14 20 58 0 44 -3 54 -20 58 -14 4 -20 14 -20 35 0 24 -5 31 -22 34
-16 2 -22 9 -20 21 2 15 -6 17 -60 18 -35 0 -57 3 -50 6 6 2 12 15 12 28 0 14
7 25 20 28 17 4 20 14 20 57 0 43 -3 53 -20 57 -11 3 -20 13 -20 23 0 31 -11
50 -30 50 -29 0 -50 11 -50 26 0 10 -14 14 -51 14 -42 0 -52 -3 -56 -20z"/>
<path d="M17530 12912 c0 -8 -19 -12 -55 -12 l-55 0 0 -34 c0 -45 -9 -66 -27
-66 -8 0 -13 -8 -12 -17 4 -41 -2 -63 -16 -63 -11 0 -15 -11 -15 -36 0 -27 -5
-37 -20 -41 -18 -5 -20 -14 -20 -109 0 -92 -2 -106 -20 -121 -13 -12 -20 -30
-20 -54 0 -24 -5 -39 -15 -43 -11 -4 -15 -20 -15 -55 0 -40 -3 -50 -20 -54
-16 -4 -20 -14 -20 -50 0 -28 -6 -49 -16 -57 -23 -20 -14 -64 14 -68 15 -2 22
2 22 12 0 12 11 16 50 16 43 0 50 3 50 20 0 11 5 20 11 20 5 0 7 5 4 10 -3 6
1 10 9 10 10 0 16 9 16 25 0 16 6 25 15 25 10 0 15 11 15 35 0 29 4 35 21 35
18 0 21 5 17 36 -3 29 -1 38 14 42 14 3 18 14 18 53 0 42 3 49 20 49 18 0 20
7 20 83 0 98 7 128 26 120 12 -4 14 16 14 116 0 79 4 121 11 121 6 0 8 9 4 23
-9 27 -25 46 -25 29z"/>
<path d="M19260 12770 c0 -5 -20 -10 -44 -10 -54 0 -76 -8 -76 -26 0 -10 -15
-14 -55 -14 -48 0 -55 -2 -55 -20 0 -18 -7 -20 -56 -20 -32 0 -53 -4 -49 -9 8
-15 -29 -31 -69 -31 -24 0 -35 -4 -33 -12 1 -9 -13 -14 -40 -16 -30 -2 -43 -8
-43 -18 0 -8 -13 -17 -29 -20 -17 -4 -32 -12 -35 -20 -3 -8 -19 -14 -35 -14
-32 0 -41 -14 -41 -66 0 -22 7 -40 20 -51 11 -10 20 -23 20 -30 0 -7 10 -13
23 -14 l22 0 -22 -16 c-16 -11 -23 -26 -23 -49 l0 -34 59 0 c50 0 59 3 64 20
4 15 14 20 36 20 31 0 31 0 31 54 0 45 -3 54 -20 59 -11 3 -20 10 -20 16 0 6
9 11 20 11 11 0 20 6 20 14 0 16 30 26 81 26 23 0 39 6 43 15 4 11 21 15 62
15 46 0 55 3 50 15 -4 12 3 15 32 15 40 0 66 12 60 26 -1 5 12 10 30 12 20 2
32 9 32 18 0 8 9 14 20 14 13 0 20 7 20 20 0 13 7 20 20 20 17 0 20 7 20 41 0
22 -6 47 -14 55 -17 16 -26 18 -26 4z"/>
<path d="M20680 12710 c0 -5 6 -10 13 -10 8 0 7 -4 -3 -10 -8 -5 -45 -10 -82
-10 -51 0 -68 -3 -68 -14 0 -17 -22 -26 -66 -26 -22 0 -33 -4 -31 -12 1 -8
-14 -15 -38 -19 -22 -3 -35 -7 -30 -8 18 -3 -28 -31 -52 -31 -13 0 -22 -5 -20
-12 1 -8 -11 -14 -30 -16 -21 -2 -33 -9 -33 -18 0 -9 -10 -14 -29 -14 -20 0
-30 -6 -34 -20 -4 -15 -14 -20 -41 -20 -29 0 -36 -4 -36 -20 0 -16 -7 -20 -36
-20 -20 0 -33 -4 -29 -9 7 -12 -26 -31 -53 -31 -11 0 -22 -7 -26 -15 -3 -10
-19 -15 -42 -15 -28 0 -35 -3 -30 -15 4 -11 -1 -15 -18 -15 -35 0 -56 -10 -56
-26 0 -10 -13 -14 -45 -14 -38 0 -45 -3 -43 -17 2 -15 -5 -19 -39 -21 -28 -2
-43 -8 -43 -17 0 -16 -22 -25 -61 -25 -18 0 -28 -5 -26 -12 1 -9 -14 -14 -46
-16 -36 -2 -47 -7 -44 -16 6 -15 -32 -26 -84 -26 -19 0 -29 -5 -29 -15 0 -12
-14 -15 -65 -15 -37 0 -65 -4 -65 -10 0 -5 6 -10 13 -10 8 0 7 -4 -3 -10 -8
-5 -42 -10 -74 -10 -44 0 -62 -4 -71 -17 -10 -13 -34 -19 -101 -24 -49 -3 -82
-7 -74 -8 13 -1 13 -2 0 -11 -8 -5 -72 -10 -142 -10 -79 0 -128 -4 -128 -10 0
-5 6 -10 13 -11 6 -1 1 -5 -13 -9 -14 -4 -194 -8 -400 -8 -206 0 -386 4 -400
8 -14 4 -19 8 -12 9 6 1 12 6 12 11 0 6 -38 10 -94 10 -102 0 -137 7 -114 21
8 5 -23 9 -74 9 -72 0 -88 -3 -88 -15 0 -9 -10 -15 -26 -15 -20 0 -25 -4 -20
-16 4 -11 -1 -18 -14 -21 -11 -3 -20 -12 -20 -19 0 -8 -9 -14 -20 -14 -17 0
-20 -7 -20 -40 0 -33 -3 -40 -19 -40 -13 0 -21 -9 -26 -29 -5 -22 -11 -28 -22
-24 -13 5 -15 1 -9 -20 5 -23 3 -27 -15 -27 -15 0 -19 -4 -15 -16 4 -11 -1
-18 -14 -21 -11 -3 -20 -12 -20 -19 0 -8 -7 -14 -15 -14 -8 0 -15 -9 -15 -20
0 -13 -7 -20 -20 -20 -13 0 -20 -7 -20 -20 0 -13 -7 -20 -20 -20 -11 0 -20 -7
-20 -15 0 -9 -9 -15 -21 -15 -15 0 -19 -4 -15 -16 4 -11 -1 -18 -14 -21 -11
-3 -20 -12 -20 -19 0 -8 -9 -14 -19 -14 -16 0 -21 -9 -27 -45 -3 -25 -10 -45
-15 -45 -5 0 -9 -11 -9 -24 0 -26 29 -44 41 -25 4 7 41 14 88 17 60 3 81 8 81
18 0 8 9 14 20 14 13 0 20 7 20 20 0 11 7 20 15 20 8 0 15 9 15 20 0 13 7 20
20 20 11 0 20 5 20 10 0 6 9 19 20 30 11 11 20 28 20 38 0 19 41 62 59 62 6 0
11 16 11 35 0 22 6 38 15 41 8 4 15 12 15 20 0 20 23 17 50 -6 18 -15 37 -20
86 -20 59 0 90 -12 62 -23 -7 -3 32 -6 87 -7 85 -1 215 -15 178 -19 -7 0 -13
-5 -13 -11 0 -6 102 -10 286 -10 240 0 285 2 281 14 -8 19 34 26 159 26 83 0
102 3 98 14 -4 10 13 14 79 18 62 3 89 9 102 21 12 13 34 17 86 17 50 0 68 3
67 13 -2 8 17 13 65 15 53 2 68 6 64 17 -7 17 14 25 64 25 28 0 39 4 39 15 0
11 12 15 50 15 43 0 50 3 50 20 0 17 7 20 40 20 28 0 40 4 40 14 0 17 22 26
61 26 17 0 28 4 25 9 -7 11 17 21 50 21 14 0 24 6 24 14 0 16 21 26 56 26 15
0 24 6 24 15 0 9 10 15 23 16 47 3 52 4 52 19 0 10 12 16 31 18 22 2 34 9 37
23 4 14 14 19 36 19 21 0 31 5 31 15 0 9 9 15 23 15 21 0 62 19 42 20 -24 1
23 20 49 20 21 0 27 4 22 15 -4 12 3 15 29 15 28 0 35 4 35 20 0 16 7 20 35
20 28 0 35 4 35 20 0 16 7 20 34 20 25 0 35 5 39 20 4 14 14 20 35 20 17 0 32
6 36 15 3 10 19 15 42 15 28 0 35 3 30 15 -4 12 3 15 34 15 33 0 40 3 40 20 0
17 7 20 39 20 30 0 40 4 44 20 4 15 14 20 36 20 19 0 30 5 29 12 -2 7 12 17
30 23 18 6 32 16 30 21 -2 5 7 10 20 12 15 2 22 9 20 20 -2 11 5 18 20 20 19
3 22 9 22 51 0 57 -19 101 -42 101 -10 0 -18 -4 -18 -10z"/>
<path d="M16984 12561 c8 -12 -18 -21 -56 -21 -23 0 -29 -4 -24 -15 4 -11 -2
-15 -24 -15 -23 0 -30 -4 -30 -20 0 -16 -7 -20 -30 -20 -24 0 -30 -4 -28 -17
2 -12 -6 -19 -26 -23 -17 -3 -29 -8 -28 -12 5 -21 0 -28 -19 -28 -12 0 -17 -4
-14 -11 4 -6 -2 -13 -14 -16 -12 -3 -21 -9 -21 -14 0 -13 -46 -59 -59 -59 -6
0 -11 -9 -11 -20 0 -11 -6 -20 -14 -20 -15 0 -26 -21 -26 -51 0 -12 -7 -19
-20 -19 -13 0 -20 -7 -20 -20 0 -13 -7 -20 -20 -20 -16 0 -20 -7 -20 -35 0
-23 -5 -35 -14 -35 -8 0 -17 -15 -20 -34 -4 -19 -13 -37 -21 -40 -11 -4 -15
-23 -15 -77 0 -62 2 -71 20 -76 11 -3 20 -11 20 -18 0 -8 10 -15 23 -17 15 -2
21 -9 19 -20 -2 -15 5 -18 39 -18 32 0 40 -3 35 -15 -4 -12 3 -15 29 -15 40 0
44 -11 15 -42 -12 -13 -18 -29 -14 -40 4 -13 0 -18 -15 -18 -14 0 -21 -6 -21
-20 0 -16 -7 -20 -30 -20 -19 0 -29 -5 -27 -12 1 -8 -11 -14 -30 -16 -19 -2
-33 -9 -33 -17 0 -17 -22 -25 -67 -25 -27 0 -34 -3 -29 -15 5 -13 -16 -15
-149 -15 -131 0 -155 2 -155 15 0 9 -10 15 -26 15 -17 0 -28 6 -31 20 -3 11
-10 20 -17 20 -7 0 -10 23 -9 67 1 38 2 92 3 121 0 39 4 52 15 52 10 0 15 11
15 35 0 23 5 35 14 35 17 0 28 27 21 50 -4 12 1 19 15 23 15 4 20 13 20 36 0
24 4 31 19 31 14 0 21 10 25 35 5 24 11 33 21 28 11 -4 15 3 15 26 0 21 5 31
15 31 24 0 21 86 -4 100 -30 16 -91 13 -91 -5 0 -8 -9 -19 -20 -25 -13 -7 -20
-21 -20 -40 0 -20 -5 -30 -15 -30 -9 0 -18 -13 -22 -31 -3 -17 -12 -33 -19
-36 -8 -3 -14 -14 -14 -24 0 -12 -7 -19 -20 -19 -16 0 -20 -7 -20 -35 0 -28
-4 -35 -20 -35 -16 0 -20 -7 -20 -34 0 -18 -6 -39 -14 -45 -7 -6 -16 -29 -20
-51 -4 -24 -12 -40 -20 -40 -9 0 -15 -17 -18 -52 -3 -29 -11 -54 -17 -56 -7
-2 -11 -55 -11 -168 0 -137 3 -166 15 -170 8 -4 15 -12 15 -20 0 -8 7 -14 15
-14 8 0 15 -9 15 -20 0 -13 7 -20 20 -20 13 0 20 -7 20 -20 0 -16 7 -20 30
-20 20 0 30 -5 30 -15 0 -11 11 -15 43 -15 59 0 87 -9 80 -26 -4 -11 11 -14
82 -14 71 0 86 3 82 14 -7 17 21 26 81 26 31 0 42 4 42 15 0 10 11 15 35 15
28 0 35 4 35 20 0 16 7 20 30 20 20 0 30 5 30 15 0 8 11 17 24 21 14 3 27 12
30 20 3 8 12 14 21 14 8 0 15 7 15 15 0 9 7 18 15 21 8 4 15 12 15 20 0 8 8
14 19 14 14 0 21 10 25 36 4 19 14 38 22 41 7 3 14 11 14 18 0 8 9 17 20 20
13 4 20 15 20 32 0 13 9 36 20 50 12 16 20 41 20 64 0 28 4 39 15 39 13 0 15
23 15 150 0 127 -2 150 -15 150 -8 0 -15 4 -15 9 0 5 -13 11 -30 15 -18 3 -30
12 -30 21 0 10 -10 15 -30 15 -20 0 -30 5 -30 15 0 8 5 15 10 15 6 0 10 7 10
15 0 8 4 15 9 15 5 0 11 9 14 20 3 12 14 20 27 20 16 0 20 4 16 15 -4 11 2 15
24 15 23 0 30 4 30 20 0 14 7 20 24 20 15 0 26 7 29 20 5 18 14 20 99 20 61 0
88 3 78 10 -11 7 -9 11 13 19 15 6 27 15 27 21 0 5 7 10 15 10 8 0 15 9 15 19
0 11 9 23 20 26 16 5 20 15 20 55 0 40 3 48 15 44 12 -5 15 3 15 40 l0 46 -81
0 c-44 0 -78 -4 -75 -9z"/>
<path d="M22428 12423 c23 -9 12 -20 -28 -27 -35 -5 -41 -11 -46 -35 -5 -22
-13 -30 -35 -35 -17 -3 -29 -12 -29 -21 0 -11 -11 -15 -45 -15 -38 0 -45 -3
-43 -17 2 -14 -5 -19 -28 -21 -22 -2 -34 -9 -37 -23 -3 -10 -12 -19 -21 -19
-9 0 -16 -7 -16 -15 0 -8 -9 -15 -20 -15 -16 0 -20 -7 -20 -35 0 -28 -4 -35
-19 -35 -13 0 -20 -9 -24 -30 -4 -19 -13 -30 -23 -30 -12 0 -15 -6 -10 -25 5
-18 2 -25 -8 -25 -7 0 -16 -9 -19 -20 -3 -11 -12 -20 -21 -20 -9 0 -16 -7 -16
-15 0 -8 -9 -15 -20 -15 -14 0 -20 -6 -18 -17 2 -13 -5 -19 -23 -21 -17 -2
-29 -11 -32 -23 -3 -11 -14 -19 -25 -19 -11 0 -22 -7 -26 -15 -3 -9 -18 -15
-37 -15 -23 0 -30 -4 -26 -14 6 -15 -12 -26 -45 -26 -14 0 -18 -5 -14 -15 4
-12 -3 -15 -34 -15 l-40 0 0 -60 0 -60 94 0 c85 0 94 2 99 20 4 17 14 20 61
20 43 0 56 3 56 15 0 9 9 15 25 15 14 0 29 8 35 20 6 11 17 20 25 20 8 0 15 7
15 15 0 8 9 15 20 15 16 0 20 7 20 35 0 28 4 35 20 35 17 0 20 7 20 40 0 28 4
40 14 40 8 0 17 14 21 30 4 17 13 30 22 30 10 0 14 6 10 20 -4 17 0 20 30 20
30 0 34 3 28 20 -6 18 -2 20 38 20 36 0 46 4 50 20 4 15 14 20 36 20 20 0 31
5 31 14 0 8 9 17 19 21 11 3 22 19 26 35 4 17 11 30 16 30 5 0 9 9 9 20 0 13
7 20 20 20 18 0 20 7 20 54 0 46 3 56 20 61 20 6 25 29 14 59 -4 11 -18 16
-43 15 -20 0 -30 -3 -23 -6z"/>
<path d="M21383 12323 c-7 -2 -13 -11 -13 -19 0 -8 -7 -14 -15 -14 -8 0 -15
-9 -15 -20 0 -11 -7 -20 -15 -20 -8 0 -15 -9 -15 -20 0 -13 -7 -20 -20 -20
-18 0 -24 -12 -23 -47 1 -7 -8 -13 -18 -13 -12 0 -19 -7 -19 -20 0 -11 -6 -20
-14 -20 -19 0 -26 -22 -26 -81 0 -43 3 -49 21 -49 11 0 17 -4 14 -10 -3 -5 6
-15 20 -22 18 -8 22 -14 13 -20 -8 -4 11 -8 44 -8 47 0 56 -3 52 -15 -4 -8
-15 -15 -25 -15 -12 0 -19 -7 -19 -20 0 -15 -7 -20 -25 -20 -15 0 -24 -5 -22
-12 1 -8 -10 -14 -25 -16 -16 -2 -28 -9 -28 -17 0 -14 -21 -25 -51 -25 -10 0
-19 -7 -19 -15 0 -11 -11 -15 -35 -15 -29 0 -35 -4 -33 -17 2 -14 -5 -19 -30
-21 l-33 -3 3 -57 3 -57 53 -3 c47 -3 52 -1 52 17 0 19 6 21 54 21 45 0 54 3
59 20 4 16 14 20 51 20 31 0 45 4 44 12 -2 7 7 14 20 16 12 2 27 12 32 23 6
10 17 19 25 19 8 0 15 7 15 15 0 9 9 15 21 15 15 0 19 4 15 16 -4 11 1 18 14
21 13 3 22 17 26 39 3 19 12 34 19 34 7 0 16 16 19 35 4 20 11 33 15 30 5 -2
12 15 15 39 4 24 13 47 21 50 12 4 15 25 15 91 0 78 -2 85 -20 85 -12 0 -20 7
-20 16 0 9 -9 18 -20 21 -11 3 -20 14 -20 24 0 12 -7 19 -20 19 -11 0 -20 6
-20 14 0 21 -63 33 -97 19z"/>
<path d="M20892 12273 c2 -11 -5 -19 -17 -21 -26 -5 -75 -60 -75 -84 0 -10 -7
-21 -15 -24 -8 -4 -15 -12 -15 -20 0 -8 -7 -14 -15 -14 -8 0 -19 -9 -25 -20
-7 -14 -21 -20 -43 -20 -21 0 -36 -7 -45 -20 -10 -16 -23 -20 -73 -20 -33 0
-58 -4 -55 -9 10 -15 -22 -21 -120 -21 -87 0 -94 -1 -94 -20 0 -13 -7 -20 -20
-20 -19 0 -20 -7 -20 -159 0 -150 -1 -159 -20 -164 -17 -4 -20 -14 -20 -56 0
-37 -4 -53 -15 -57 -9 -4 -15 -19 -15 -35 0 -18 -5 -29 -14 -29 -12 0 -25 -23
-30 -53 0 -4 -6 -11 -12 -15 -6 -4 -13 -15 -17 -24 -4 -11 -17 -18 -33 -18
-19 0 -25 -4 -20 -15 4 -12 -3 -15 -29 -15 -28 0 -35 -4 -35 -20 0 -17 -7 -20
-50 -20 -43 0 -50 -3 -50 -20 0 -18 -7 -20 -75 -20 -55 0 -74 -3 -72 -12 1 -9
-12 -13 -43 -13 -31 0 -44 4 -43 13 2 8 -15 12 -62 12 -58 0 -65 2 -65 19 0
14 -8 21 -27 23 -20 2 -27 8 -25 21 2 9 -2 17 -8 17 -5 0 -10 7 -10 15 0 8 -7
15 -15 15 -12 0 -15 17 -15 98 0 110 6 142 26 142 10 0 14 13 14 40 0 33 3 40
20 40 16 0 20 7 20 35 0 24 5 35 15 35 23 0 20 57 -4 70 -31 16 -101 13 -101
-5 0 -8 -7 -15 -15 -15 -8 0 -16 -10 -17 -22 0 -13 -1 -30 -2 -38 -1 -8 -9
-16 -19 -18 -11 -2 -17 -13 -17 -30 0 -39 -11 -73 -21 -66 -5 3 -9 -14 -9 -37
0 -28 -6 -47 -18 -58 -15 -13 -20 -37 -25 -125 -3 -60 -3 -153 0 -207 5 -87 8
-99 25 -99 11 0 18 -7 18 -20 0 -11 7 -20 15 -20 8 0 15 -9 15 -20 0 -11 7
-20 15 -20 8 0 15 -7 15 -15 0 -9 9 -15 25 -15 14 0 28 -7 31 -15 4 -8 18 -15
34 -15 28 0 55 -21 43 -33 -3 -4 60 -7 140 -7 120 0 145 2 141 14 -6 15 23 26
73 26 21 0 32 5 30 13 -1 7 12 13 36 15 29 3 37 7 33 18 -4 10 3 16 24 21 17
3 30 12 30 19 0 8 10 14 25 14 18 0 25 5 25 20 0 13 7 20 20 20 12 0 20 7 20
16 0 9 9 18 20 21 11 3 17 10 14 15 -3 5 3 12 13 14 11 3 26 21 33 40 8 19 17
34 22 34 4 0 8 7 8 15 0 8 9 24 20 35 11 11 20 29 20 41 0 12 8 23 20 26 14 4
20 14 20 34 0 19 5 29 15 29 11 0 15 13 15 54 0 45 3 54 20 59 18 5 20 14 20
76 0 56 3 71 15 71 12 0 15 14 15 70 l0 70 40 0 c29 0 40 4 40 15 0 12 14 15
65 15 57 0 65 2 63 18 -2 14 6 18 48 20 42 2 53 7 57 22 3 12 14 20 27 20 12
0 18 4 15 11 -4 6 2 13 14 16 12 3 21 13 21 24 0 12 7 19 20 19 11 0 20 7 20
15 0 8 7 15 15 15 8 0 15 9 15 20 0 19 7 20 95 20 88 0 95 1 95 20 0 13 7 20
20 20 16 0 20 7 20 35 0 24 5 35 15 35 22 0 20 74 -2 100 -13 15 -30 20 -69
20 -44 0 -52 -3 -57 -21 -7 -27 -54 -24 -49 4 2 12 -4 17 -23 17 -19 0 -25 -5
-23 -17z"/>
<path d="M4070 11560 c0 -5 6 -11 13 -11 45 -4 -88 -18 -180 -18 -94 -1 -113
-4 -113 -16 0 -12 -18 -15 -100 -15 -91 0 -101 -2 -98 -17 3 -16 -7 -18 -74
-21 -57 -2 -78 -6 -78 -16 0 -19 -23 -26 -88 -26 -35 0 -52 -4 -44 -9 19 -12
-8 -21 -64 -21 -31 0 -44 -4 -44 -14 0 -18 -22 -26 -72 -26 -32 0 -39 -3 -34
-15 4 -12 -4 -15 -45 -15 -46 0 -50 -2 -44 -20 6 -18 2 -20 -33 -20 -31 0 -41
-4 -45 -20 -4 -15 -14 -20 -41 -20 -23 0 -35 -4 -33 -12 1 -8 -11 -14 -30 -16
-19 -2 -33 -9 -33 -17 0 -14 -21 -25 -51 -25 -10 0 -19 -7 -19 -15 0 -10 -11
-15 -35 -15 -28 0 -35 -4 -35 -20 0 -15 -7 -20 -29 -20 -20 0 -30 -6 -34 -20
-3 -14 -14 -20 -31 -20 -14 0 -25 -5 -23 -11 1 -7 -13 -16 -30 -21 -18 -5 -32
-14 -30 -21 1 -7 -11 -13 -26 -15 -20 -2 -27 -8 -23 -18 4 -10 -3 -14 -24 -14
-23 0 -30 -4 -30 -20 0 -15 -7 -20 -25 -20 -18 0 -25 -5 -25 -20 0 -11 -6 -20
-14 -20 -8 0 -16 -7 -18 -16 -2 -10 -15 -18 -32 -20 -16 -2 -34 -10 -38 -19
-5 -8 -16 -15 -23 -15 -8 0 -15 -7 -15 -15 0 -9 -9 -15 -25 -15 -19 0 -25 -5
-23 -17 2 -12 -4 -19 -19 -21 -13 -2 -23 -10 -23 -18 0 -8 -9 -14 -20 -14 -24
0 -26 -26 -4 -58 14 -21 14 -22 -5 -22 -15 0 -21 6 -21 21 0 19 -1 19 -16 5
-8 -9 -20 -16 -25 -16 -5 0 -9 -9 -9 -20 0 -11 -7 -20 -15 -20 -8 0 -15 -9
-15 -20 0 -13 -7 -20 -20 -20 -16 0 -20 -7 -20 -35 0 -24 -5 -35 -15 -35 -9 0
-15 -9 -15 -24 0 -20 4 -23 23 -19 l22 5 -23 -20 c-26 -24 -30 -76 -7 -98 8
-9 15 -29 15 -45 0 -18 5 -29 14 -29 8 0 17 -15 20 -35 4 -21 13 -35 22 -35 8
0 17 -7 20 -15 4 -8 12 -15 19 -15 8 0 17 -9 20 -20 3 -11 13 -20 21 -20 8 0
14 -7 14 -15 0 -9 7 -18 15 -21 8 -4 15 -14 15 -24 0 -11 10 -20 25 -24 14 -4
25 -12 25 -20 0 -7 9 -25 20 -38 10 -14 16 -28 13 -32 -3 -3 1 -6 10 -6 10 0
17 -7 17 -15 0 -8 9 -15 20 -15 13 0 20 -7 20 -20 0 -11 6 -20 14 -20 7 0 16
-13 20 -30 6 -31 26 -42 26 -14 0 8 4 13 9 10 5 -3 7 -24 4 -46 -5 -33 -3 -40
11 -40 12 0 16 -10 16 -41 0 -31 3 -40 14 -36 15 6 26 -20 26 -64 0 -18 6 -28
20 -32 18 -5 20 -14 20 -79 0 -43 4 -68 9 -60 11 19 21 -33 21 -114 0 -56 2
-64 19 -64 19 0 35 -23 24 -34 -4 -3 -15 -6 -26 -6 -18 0 -19 -7 -16 -92 2
-51 0 -99 -4 -105 -5 -7 -5 -17 -2 -23 3 -5 0 -10 -8 -10 -9 0 -17 -15 -21
-40 -4 -26 -11 -40 -21 -40 -10 0 -15 -11 -15 -34 0 -44 -9 -66 -26 -66 -8 0
-14 -10 -14 -24 0 -13 -5 -26 -12 -28 -7 -3 -12 -22 -11 -49 1 -24 0 -38 -3
-31 -3 6 -11 12 -17 12 -5 0 -8 -3 -5 -6 4 -3 -7 -18 -23 -33 -16 -16 -29 -38
-29 -50 0 -14 -6 -21 -20 -21 -11 0 -20 -7 -20 -15 0 -8 -7 -15 -15 -15 -8 0
-15 -9 -15 -20 0 -11 -7 -20 -15 -20 -8 0 -15 -7 -15 -15 0 -9 -10 -19 -22
-24 -13 -5 -21 -10 -18 -13 9 -9 -45 -58 -64 -58 -12 0 -16 -5 -12 -15 4 -10
-1 -15 -14 -15 -13 0 -20 -7 -20 -20 0 -13 -7 -20 -20 -20 -13 0 -20 -7 -20
-20 0 -13 -7 -20 -20 -20 -16 0 -20 -7 -20 -35 0 -24 -5 -35 -15 -35 -11 0
-15 -11 -15 -39 0 -25 5 -41 15 -45 9 -3 15 -18 15 -36 0 -20 5 -30 15 -30 8
0 15 -9 15 -20 0 -11 9 -29 20 -40 11 -11 20 -33 20 -50 0 -23 4 -30 20 -30
17 0 20 -7 20 -40 0 -33 3 -40 20 -40 13 0 20 -7 20 -20 0 -11 3 -20 8 -20 4
0 13 -13 20 -30 8 -16 20 -30 28 -30 8 0 14 -9 14 -20 0 -11 4 -20 8 -20 5 0
29 -20 55 -44 32 -29 47 -51 47 -69 0 -16 7 -26 20 -30 11 -3 20 -11 20 -19 0
-16 53 -43 58 -29 2 6 10 7 18 4 11 -4 13 -14 8 -39 -5 -27 -3 -34 10 -34 9 0
13 -6 10 -14 -4 -9 2 -16 16 -18 11 -2 19 -7 18 -12 -2 -5 7 -12 20 -17 12 -5
22 -15 22 -24 0 -8 9 -15 20 -15 13 0 20 -7 20 -19 0 -14 8 -21 28 -23 19 -2
26 -8 24 -20 -2 -12 4 -18 16 -18 11 0 22 -7 26 -15 3 -8 12 -15 20 -15 9 0
20 -9 26 -20 6 -11 18 -20 26 -20 10 0 14 -6 10 -15 -4 -11 2 -15 24 -15 18 0
30 -5 30 -13 0 -7 15 -17 33 -23 17 -5 31 -15 30 -22 -2 -8 16 -12 62 -12 58
0 65 2 65 20 0 13 7 20 20 20 15 0 20 7 20 29 0 21 6 32 20 36 14 4 20 15 20
35 0 19 6 29 20 33 15 4 20 14 20 41 0 25 4 36 15 36 10 0 15 10 15 34 0 26 5
35 21 39 17 5 21 12 17 36 -3 17 0 31 5 31 5 0 6 7 3 15 -19 46 -19 50 -5 38
19 -18 29 -16 29 6 0 11 9 23 20 26 13 4 20 15 20 30 0 35 10 54 26 48 11 -4
14 5 14 36 0 23 4 41 10 41 11 0 25 47 21 73 -1 12 4 17 19 17 16 0 20 5 16
15 -4 10 1 15 14 15 17 0 20 7 20 40 0 33 3 40 20 40 16 0 20 7 20 35 0 29 4
35 21 35 11 0 18 4 15 8 -3 5 4 18 14 30 11 12 20 33 20 47 0 15 6 25 14 25
15 0 26 21 26 51 0 10 6 19 13 19 6 0 18 14 26 31 11 26 11 32 -4 49 -9 10
-15 27 -12 37 4 16 6 16 12 -4 7 -22 35 -40 35 -23 0 6 7 10 15 10 8 0 15 9
15 20 0 11 7 20 15 20 8 0 17 14 21 35 5 30 10 35 27 29 17 -5 19 -3 14 16 -4
16 -1 24 14 27 10 3 19 12 19 19 0 8 6 14 14 14 8 0 17 15 20 36 4 19 14 38
22 41 7 3 14 11 14 18 0 8 9 17 20 20 13 4 20 15 20 32 0 13 9 36 20 50 11 14
20 34 20 44 0 11 7 19 15 19 8 0 17 14 21 34 4 24 10 33 20 29 11 -4 14 11 14
76 0 65 -3 81 -15 81 -8 0 -15 5 -15 10 0 6 7 10 15 10 13 0 15 53 15 419 0
391 -1 420 -17 424 -17 4 -17 5 0 6 15 1 17 16 17 170 0 163 -1 169 -21 174
-23 6 -17 27 7 27 10 0 14 14 14 55 0 30 -4 55 -10 55 -5 0 -11 -6 -11 -12 -5
-44 -18 97 -18 195 -1 98 1 117 14 117 8 0 15 7 15 15 0 9 9 15 25 15 19 0 25
5 23 18 -2 14 6 18 45 20 31 2 47 8 47 16 0 20 23 26 91 26 33 0 58 4 55 9
-10 16 23 21 125 21 59 0 99 4 99 10 0 6 -6 10 -12 11 -7 1 -2 5 12 9 14 4
233 8 487 9 365 1 462 4 460 14 -1 7 11 13 31 15 24 2 32 7 28 17 -3 8 3 17
15 20 10 4 19 13 19 21 0 8 9 14 20 14 13 0 20 7 20 19 0 11 7 26 15 35 8 8
15 24 15 35 0 12 5 21 10 21 6 0 10 7 10 15 0 8 5 15 10 15 6 0 10 13 10 29 0
53 11 90 26 84 11 -4 14 5 14 35 0 34 -3 41 -22 44 -18 2 -23 10 -24 33 -3 79
-4 85 -19 85 -8 0 -15 7 -15 15 0 9 -9 15 -24 15 -36 0 -55 10 -49 26 4 10 -3
14 -25 14 -38 0 -64 9 -56 21 3 5 -13 9 -35 9 -49 0 -71 8 -71 26 0 9 -18 14
-62 16 -54 3 -63 6 -60 21 3 15 -7 17 -88 17 -73 0 -90 3 -90 15 0 12 -18 15
-97 16 -82 0 -207 14 -165 18 6 0 12 6 12 11 0 6 -113 10 -320 10 -207 0 -320
-4 -320 -10z"/>
<path d="M21890 11511 c-5 -11 -10 -24 -10 -30 0 -12 -47 -61 -59 -61 -14 0
-21 -28 -21 -85 0 -69 16 -105 47 -105 13 0 23 -6 23 -14 0 -9 12 -16 28 -18
19 -2 26 -8 24 -20 -2 -13 4 -18 19 -18 15 0 19 -4 15 -16 -3 -9 -6 -22 -6
-30 0 -8 -7 -14 -15 -14 -12 0 -15 -13 -15 -60 0 -47 3 -60 15 -60 8 0 15 -7
15 -15 0 -9 9 -15 21 -15 12 0 23 -8 26 -19 3 -11 18 -22 36 -26 18 -4 26 -9
20 -12 -29 -11 -10 -24 30 -21 29 2 42 8 42 18 0 8 10 16 23 18 12 2 22 10 22
19 0 8 9 17 20 20 11 3 20 12 20 19 0 8 9 14 20 14 18 0 20 7 20 76 0 61 -4
79 -17 90 -16 12 -16 13 8 14 18 0 28 7 32 20 3 11 12 20 21 20 9 0 16 6 16
14 0 8 9 18 20 21 11 3 20 13 20 21 0 8 9 14 20 14 18 0 20 7 20 75 0 61 -3
75 -15 75 -9 0 -19 8 -22 18 -4 9 -11 20 -17 24 -6 4 -11 13 -11 20 0 7 -10
14 -22 16 -13 2 -23 10 -23 18 0 10 -14 14 -55 14 -46 0 -55 -3 -55 -18 0 -9
-9 -23 -21 -30 -12 -8 -19 -21 -17 -35 2 -14 -3 -23 -14 -25 -12 -2 -18 3 -18
16 0 11 -9 22 -20 25 -13 3 -18 10 -14 21 5 12 0 16 -20 16 -16 0 -26 6 -26
15 0 12 -13 15 -60 15 -48 0 -61 -4 -70 -19z"/>
<path d="M20885 10400 c3 -5 -6 -12 -20 -16 -14 -3 -25 -11 -25 -18 0 -6 -9
-17 -20 -24 -13 -8 -20 -23 -20 -42 0 -23 -4 -30 -20 -30 -18 0 -20 -7 -20
-74 0 -69 2 -75 22 -78 12 -2 23 -9 26 -15 2 -9 -10 -13 -42 -13 -36 0 -44 -3
-40 -15 4 -10 0 -15 -11 -15 -9 0 -19 -9 -22 -20 -3 -11 -12 -20 -19 -20 -8 0
-14 -9 -14 -19 0 -11 -9 -23 -20 -26 -18 -6 -20 -15 -20 -91 l0 -84 29 -6 c20
-4 28 -11 24 -20 -4 -10 4 -14 26 -14 21 0 31 -5 31 -15 0 -12 13 -15 55 -15
42 0 55 3 55 15 0 8 8 15 18 15 12 0 23 13 32 35 10 26 20 35 37 35 16 0 23
-6 23 -20 0 -13 7 -20 20 -20 11 0 20 -7 20 -15 0 -12 16 -15 86 -15 70 0 85
3 81 14 -4 9 3 16 18 20 18 5 26 15 31 40 3 19 12 37 20 40 10 4 14 25 14 76
0 63 -2 70 -20 70 -11 0 -20 6 -20 13 0 7 -10 17 -22 22 -13 6 -22 15 -21 20
1 6 -7 13 -18 17 -10 4 -19 14 -19 23 0 10 -10 15 -30 15 -20 0 -30 5 -30 15
0 8 9 15 20 15 18 0 20 7 20 75 0 68 -2 75 -20 75 -13 0 -20 7 -20 20 0 13 -7
20 -20 20 -11 0 -20 6 -20 14 0 7 -14 16 -31 20 -17 3 -28 10 -24 16 4 6 -11
10 -40 10 -27 0 -44 -4 -40 -10z"/>
<path d="M20073 10151 c-3 -14 -13 -21 -28 -21 -14 0 -25 -7 -28 -20 -4 -16
-14 -20 -51 -20 -35 0 -44 -3 -40 -14 9 -23 -47 -29 -246 -25 -262 4 -331 2
-328 -13 2 -9 -12 -14 -40 -16 -32 -2 -42 -7 -38 -17 3 -9 -5 -16 -25 -20 -16
-4 -29 -13 -29 -21 0 -8 -10 -14 -26 -14 -19 0 -25 -4 -20 -15 3 -8 -1 -18 -8
-22 -7 -5 -15 -16 -19 -25 -3 -10 -13 -18 -21 -18 -8 0 -17 -13 -21 -29 -4
-21 -11 -28 -21 -24 -12 5 -15 -3 -12 -38 2 -34 7 -45 22 -47 10 -2 23 3 28
12 6 10 22 16 43 16 24 0 35 5 35 15 0 10 10 15 30 15 23 0 30 4 30 20 0 19 7
20 99 20 90 0 99 -2 104 -20 5 -19 14 -20 137 -20 123 0 132 1 137 20 4 17 14
20 58 20 44 0 54 3 58 20 4 15 14 20 41 20 24 0 36 5 36 14 0 16 21 26 56 26
14 0 23 5 22 12 -2 7 7 14 20 16 12 2 22 9 22 16 0 8 14 16 31 20 17 3 28 10
25 15 -3 5 1 11 9 15 8 3 15 12 15 20 0 7 9 16 20 19 12 3 20 14 21 29 0 12 3
17 6 11 2 -7 9 -13 15 -13 11 0 5 76 -6 87 -3 3 -28 8 -56 11 -46 4 -52 2 -57
-17z"/>
<path d="M1262 10113 c3 -15 -8 -19 -67 -24 -38 -3 -66 -6 -61 -7 5 -1 3 -9
-4 -17 -7 -9 -29 -15 -51 -15 -26 0 -38 -4 -36 -12 1 -8 -11 -14 -30 -16 -20
-2 -33 -9 -33 -17 0 -7 -14 -16 -30 -20 -17 -4 -27 -11 -24 -16 3 -6 -3 -13
-15 -16 -12 -3 -21 -13 -21 -24 0 -12 -7 -19 -20 -19 -11 0 -20 -6 -20 -14 0
-7 -9 -16 -20 -19 -11 -3 -20 -12 -20 -21 0 -9 -8 -16 -20 -16 -11 0 -19 -3
-19 -7 3 -21 -2 -33 -16 -33 -10 0 -15 -11 -16 -32 -1 -18 -3 -25 -6 -15 -7
28 -28 14 -31 -21 -2 -18 -9 -32 -16 -32 -7 0 -17 -17 -22 -37 -5 -21 -15 -37
-22 -35 -8 1 -12 -12 -12 -38 0 -33 -3 -40 -20 -40 -18 0 -20 -7 -20 -55 0
-30 -4 -55 -10 -55 -6 0 -10 -68 -10 -185 0 -117 4 -185 10 -185 6 0 10 -22
10 -50 0 -43 3 -50 20 -50 17 0 20 -7 20 -40 0 -30 3 -38 14 -34 10 4 16 -6
21 -35 4 -24 12 -41 20 -41 7 0 16 -16 19 -35 4 -21 13 -35 21 -35 8 0 15 -7
15 -15 0 -8 5 -15 11 -15 12 0 99 -88 99 -101 0 -5 9 -9 19 -9 14 0 18 -5 14
-19 -4 -14 1 -20 19 -23 12 -2 22 -8 21 -15 -1 -6 11 -13 27 -17 18 -3 30 -12
30 -21 0 -10 10 -15 30 -15 23 0 30 -4 30 -20 0 -17 7 -20 40 -20 29 0 40 -4
40 -15 0 -10 10 -15 29 -15 49 0 91 -12 91 -26 0 -11 36 -14 195 -14 123 0
195 4 195 10 0 6 -6 10 -12 11 -33 2 33 18 76 18 38 1 47 4 42 16 -4 12 4 15
40 15 37 0 44 3 42 18 -2 13 5 18 28 20 22 2 34 9 37 23 3 11 14 19 25 19 11
0 22 7 26 15 3 8 17 15 32 15 19 0 25 4 20 15 -3 10 3 17 20 21 22 6 24 10 18
36 -4 22 -3 28 5 24 27 -17 77 23 85 67 0 4 7 12 15 16 9 6 11 18 7 34 -3 14
-2 29 4 32 5 3 10 -1 10 -9 0 -9 7 -16 15 -16 10 0 15 11 15 35 0 28 4 35 20
35 16 0 20 7 20 34 0 26 5 36 20 41 16 5 20 15 20 56 0 38 4 49 15 49 14 0 16
26 13 208 -3 203 -3 207 -24 206 -19 0 -20 3 -13 35 15 62 11 92 -11 98 -15 4
-20 14 -20 39 0 27 -4 34 -20 34 -16 0 -20 7 -20 34 0 26 -5 36 -20 41 -11 3
-20 12 -20 20 0 7 -7 15 -15 19 -8 3 -15 9 -14 13 3 20 -15 52 -32 56 -13 3
-17 11 -13 21 4 12 0 16 -15 16 -12 0 -21 6 -21 14 0 8 -10 16 -22 18 -16 2
-22 9 -20 21 2 13 -4 17 -28 17 -19 0 -30 5 -30 14 0 8 -11 17 -25 20 -14 4
-25 13 -25 21 0 8 -13 15 -32 17 -20 2 -32 8 -30 16 1 8 -11 12 -37 12 -37 0
-68 19 -54 33 3 4 -20 7 -53 7 -32 0 -66 5 -74 10 -10 6 -11 10 -2 10 6 0 12
5 12 10 0 6 -65 10 -175 10 -162 0 -176 -1 -173 -17z"/>
<path d="M21740 10110 c0 -11 -6 -20 -14 -20 -15 0 -26 -21 -26 -50 0 -10 -9
-22 -20 -25 -11 -3 -20 -13 -20 -21 0 -8 -7 -14 -15 -14 -8 0 -15 -6 -15 -14
0 -8 -9 -18 -20 -21 -16 -5 -20 -15 -20 -51 0 -42 12 -59 23 -31 3 6 6 2 6
-10 1 -16 7 -23 21 -23 13 0 20 -7 20 -20 0 -13 7 -20 20 -20 11 0 20 -7 20
-15 0 -12 15 -15 75 -15 60 0 75 3 75 15 0 8 9 15 20 15 13 0 20 7 20 20 0 11
6 20 14 20 9 0 17 15 21 39 5 29 11 38 21 34 11 -4 14 7 14 52 0 48 -3 58 -20
62 -11 3 -20 12 -20 19 0 8 -7 14 -16 14 -9 0 -18 9 -21 20 -3 11 -14 20 -25
20 -11 0 -22 9 -25 20 -4 16 -14 20 -49 20 -37 0 -44 -3 -44 -20z"/>
<path d="M18285 10039 c4 -6 -3 -13 -15 -16 -12 -3 -19 -11 -16 -19 3 -7 -4
-16 -15 -19 -10 -4 -19 -13 -19 -21 0 -8 -7 -14 -16 -14 -10 0 -14 -6 -10 -15
3 -10 -3 -17 -19 -21 -13 -3 -23 -11 -22 -18 1 -6 -10 -12 -25 -14 -20 -2 -28
-9 -28 -23 0 -16 -7 -19 -40 -19 -30 0 -38 -3 -34 -14 4 -11 -5 -17 -32 -22
-21 -4 -45 -13 -52 -21 -7 -7 -26 -13 -42 -13 -20 0 -29 -6 -33 -21 -5 -18
-11 -21 -35 -16 -24 5 -31 2 -35 -13 -4 -15 -14 -20 -36 -20 -24 0 -31 -4 -31
-20 0 -16 -7 -20 -30 -20 -23 0 -30 -4 -30 -20 0 -15 -7 -20 -26 -20 -14 0
-23 -4 -19 -10 4 -6 -7 -13 -24 -16 -18 -4 -31 -13 -31 -21 0 -8 -9 -17 -20
-20 -11 -3 -20 -12 -20 -19 0 -8 -9 -14 -21 -14 -15 0 -19 -4 -15 -16 4 -11
-1 -18 -14 -21 -13 -3 -22 -17 -26 -39 -3 -19 -12 -34 -20 -34 -9 0 -14 -12
-14 -36 0 -27 -5 -37 -20 -41 -16 -4 -20 -14 -20 -50 0 -35 3 -44 14 -40 10 4
17 -4 21 -24 4 -19 16 -34 31 -39 13 -5 24 -14 24 -20 0 -5 11 -10 24 -10 34
0 56 -10 56 -26 0 -10 21 -14 78 -16 67 -3 77 -5 74 -20 -3 -17 21 -18 383
-18 250 0 385 4 385 10 0 6 -10 10 -22 11 -22 0 -22 1 -3 9 11 5 140 9 288 9
220 1 267 3 267 15 0 21 33 26 190 26 83 0 139 4 132 9 -25 15 15 21 150 21
107 0 129 2 125 14 -8 21 23 26 157 26 101 0 117 2 112 15 -5 13 13 15 120 15
113 0 125 2 122 18 -3 15 9 17 115 20 96 2 118 5 114 16 -8 21 15 26 124 26
74 0 98 3 97 13 -2 9 22 13 90 15 69 2 92 6 92 16 0 19 32 26 119 26 61 0 72
3 67 15 -4 13 9 15 85 15 80 0 90 2 87 18 -3 15 7 17 65 20 53 2 68 6 64 17
-7 17 14 25 68 25 34 0 44 4 48 20 4 15 14 20 41 20 25 0 36 4 36 15 0 8 9 15
20 15 17 0 20 7 20 48 0 26 -5 53 -12 60 -8 8 -61 12 -171 12 -133 0 -158 -2
-154 -14 8 -21 -14 -26 -124 -26 -79 0 -97 -3 -93 -14 7 -19 -26 -26 -146 -27
-60 0 -97 -4 -85 -8 30 -12 -41 -21 -167 -21 -65 0 -108 -4 -108 -10 0 -5 8
-11 18 -11 45 -3 -73 -18 -145 -18 -67 -1 -83 -4 -83 -16 0 -13 -22 -15 -140
-15 -87 0 -140 -4 -140 -10 0 -5 6 -10 13 -11 6 0 3 -4 -8 -9 -11 -5 -96 -9
-190 -9 -99 -1 -164 -5 -156 -10 31 -20 -25 -26 -279 -32 -146 -3 -254 -7
-240 -8 18 -3 13 -6 -20 -12 -53 -9 -1174 -12 -1208 -2 -18 4 -20 8 -10 14 8
5 -9 9 -44 9 -31 0 -68 5 -81 11 l-25 11 21 24 c11 13 28 24 38 24 9 0 19 9
22 20 4 15 14 20 40 20 22 0 37 6 41 15 4 10 20 15 52 15 37 0 45 3 40 15 -4
12 5 15 50 15 47 0 54 3 52 18 -2 14 5 18 40 20 33 3 42 7 40 20 -2 13 6 18
33 20 27 2 38 9 42 23 3 10 12 19 21 19 9 0 16 7 16 15 0 8 9 15 20 15 11 0
20 6 20 14 0 7 9 16 20 19 11 3 20 12 20 21 0 9 7 16 15 16 8 0 17 14 21 35 3
20 12 35 20 35 8 0 14 9 14 20 0 13 7 20 20 20 18 0 20 7 20 55 l0 55 -61 0
c-40 0 -58 -4 -54 -11z"/>
<path d="M18540 9965 c0 -8 -9 -15 -20 -15 -11 0 -20 -7 -20 -15 0 -8 -9 -24
-20 -35 -11 -11 -20 -27 -20 -35 0 -8 -9 -24 -20 -35 -11 -11 -20 -29 -20 -39
0 -10 -7 -21 -15 -25 -9 -3 -15 -19 -15 -41 0 -28 4 -35 19 -35 31 0 50 -11
45 -25 -4 -9 4 -15 23 -17 20 -2 27 -8 25 -20 -3 -16 7 -18 83 -18 69 0 85 3
85 15 0 18 18 51 43 77 9 10 17 26 18 36 0 10 3 12 6 5 13 -32 23 -7 23 57 0
63 -2 70 -20 70 -12 0 -20 7 -20 16 0 9 -9 18 -20 21 -11 3 -20 14 -20 24 0
14 -7 19 -25 19 -16 0 -25 6 -25 15 0 11 -12 15 -45 15 -33 0 -45 -4 -45 -15z"/>
<path d="M21385 9351 c-3 -6 -24 -11 -46 -11 -32 0 -39 -3 -39 -20 0 -11 -7
-20 -15 -20 -13 0 -21 -26 -16 -53 1 -5 -7 -11 -18 -14 -12 -3 -21 -17 -25
-38 -5 -25 -11 -33 -22 -28 -12 5 -14 -6 -13 -67 2 -80 -4 -90 -59 -90 -18 0
-40 -7 -48 -15 -10 -9 -34 -15 -65 -15 -35 0 -49 -4 -49 -14 0 -21 -23 -26
-121 -26 -72 0 -89 -3 -89 -15 0 -8 -6 -15 -14 -15 -11 0 -15 -26 -17 -125 -3
-98 -7 -128 -19 -135 -16 -10 -16 -11 -19 -112 -1 -53 -4 -68 -16 -68 -10 0
-15 -10 -15 -34 0 -26 -5 -36 -20 -41 -14 -4 -20 -15 -20 -36 0 -19 -5 -29
-15 -29 -8 0 -15 -9 -15 -20 0 -11 -7 -20 -15 -20 -8 0 -15 -7 -15 -15 0 -9
-8 -19 -17 -22 -10 -4 -22 -12 -26 -20 -4 -7 -22 -13 -39 -13 -23 0 -29 -4
-24 -15 4 -12 -4 -15 -44 -15 -43 0 -50 -3 -50 -20 0 -19 -7 -20 -195 -20
-188 0 -195 1 -195 20 0 16 -7 20 -35 20 -24 0 -35 5 -35 15 0 8 -7 15 -15 15
-9 0 -15 9 -15 25 0 17 -4 23 -14 19 -16 -6 -23 23 -20 81 1 22 2 50 3 63 1
12 7 22 16 22 12 0 15 13 15 55 0 48 2 55 20 55 17 0 20 7 20 51 0 46 2 50 20
44 18 -6 20 -2 20 44 0 28 5 51 10 51 6 0 10 11 10 25 0 25 -23 35 -35 15 -3
-5 -28 -10 -56 -10 l-49 0 0 -35 c0 -28 -4 -35 -20 -35 -17 0 -20 -7 -20 -39
0 -22 -6 -46 -14 -54 -8 -8 -18 -30 -21 -50 -5 -25 -11 -34 -21 -30 -11 4 -14
-7 -14 -51 0 -41 -4 -58 -15 -62 -22 -9 -23 -374 -1 -374 8 0 17 -15 20 -34 4
-23 13 -36 27 -39 12 -3 18 -10 15 -15 -3 -5 3 -12 14 -15 11 -3 20 -12 20
-20 0 -9 10 -17 23 -19 15 -2 21 -9 19 -20 -2 -15 5 -18 38 -18 29 0 40 -4 40
-15 0 -13 25 -15 165 -15 140 0 165 2 165 15 0 11 12 15 50 15 43 0 50 3 50
20 0 16 7 20 35 20 26 0 33 3 29 15 -5 11 3 17 24 21 17 4 33 12 36 20 3 8 15
14 27 14 15 0 19 4 15 16 -4 11 1 18 14 21 11 3 20 12 20 19 0 8 9 14 20 14
13 0 20 7 20 20 0 13 7 20 20 20 13 0 20 7 20 20 0 13 7 20 20 20 11 0 19 3
19 8 -5 27 3 52 16 52 8 0 15 8 15 19 0 10 9 21 20 24 15 4 20 14 20 36 0 21
5 31 15 31 11 0 15 11 15 39 0 30 4 40 20 44 16 4 20 14 20 51 0 34 4 46 15
46 12 0 15 14 15 68 0 80 8 112 26 112 10 0 14 15 14 55 l0 55 56 0 c44 0 55
3 51 14 -7 17 21 26 82 26 34 0 42 3 37 15 -4 12 4 15 40 15 41 0 45 2 39 20
-5 16 -2 20 19 20 17 0 26 5 26 16 0 9 9 18 20 21 11 3 20 12 20 19 0 8 7 14
16 14 9 0 18 9 21 20 3 11 11 20 19 20 7 0 17 15 22 33 5 17 14 31 21 30 6 -2
11 11 11 31 0 39 25 95 33 74 3 -7 5 38 4 101 -1 76 -6 116 -14 118 -6 2 -14
-1 -18 -6z"/>
<path d="M21800 9240 c0 -5 -13 -10 -30 -10 -30 0 -70 -32 -70 -57 0 -7 -9
-13 -20 -13 -17 0 -20 -7 -20 -40 0 -33 -3 -40 -20 -40 -17 0 -20 -7 -20 -50
0 -38 -4 -50 -15 -50 -12 0 -15 -13 -15 -55 0 -40 -4 -55 -14 -55 -16 0 -32
-148 -21 -193 6 -23 4 -27 -14 -27 -19 0 -21 -6 -21 -50 0 -38 -4 -50 -15 -50
-12 0 -15 -13 -15 -56 0 -47 -3 -57 -20 -61 -17 -5 -20 -14 -20 -59 l0 -54 35
0 c25 0 35 4 35 16 0 9 9 18 20 21 11 3 20 12 20 19 0 8 6 14 14 14 7 0 16 9
19 20 3 11 12 20 21 20 15 0 17 6 20 50 1 8 9 16 19 18 9 2 18 12 18 23 3 40
5 44 22 41 14 -2 17 5 17 38 0 27 4 40 14 40 10 0 16 21 21 74 5 59 10 74 21
69 11 -4 14 11 14 80 0 95 8 149 21 141 5 -3 9 40 9 95 0 61 4 101 10 101 6 0
10 11 10 25 0 16 -6 25 -15 25 -8 0 -15 -4 -15 -10z"/>
<path d="M19610 9061 c0 -6 -21 -11 -47 -13 -46 -3 -48 -4 -51 -35 -2 -25 -8
-33 -23 -33 -15 0 -19 -7 -19 -34 0 -25 -5 -35 -20 -39 -16 -4 -20 -14 -20
-51 0 -34 -4 -46 -15 -46 -12 0 -15 -13 -15 -55 0 -42 -5 -60 -20 -75 -17 -17
-20 -33 -20 -107 0 -99 -8 -142 -21 -121 -5 8 -9 -14 -9 -54 0 -61 -2 -68 -20
-68 -17 0 -20 -7 -20 -40 0 -34 -3 -40 -21 -40 -18 0 -20 -5 -17 -52 3 -49 5
-53 29 -56 20 -2 28 2 32 17 4 17 13 21 46 21 40 0 41 1 41 35 0 24 5 35 15
35 17 0 39 36 29 51 -3 6 3 13 15 16 15 4 21 13 21 34 0 18 7 32 20 39 13 7
20 21 20 40 0 20 5 30 15 30 11 0 15 13 16 53 1 47 16 120 18 90 1 -7 5 -13
11 -13 5 0 11 44 12 98 2 71 6 96 16 95 9 -2 12 26 12 117 0 73 4 120 10 120
6 0 10 11 10 25 0 16 -6 25 -15 25 -8 0 -15 -4 -15 -9z"/>
<path d="M18955 9001 c3 -5 -4 -12 -15 -16 -11 -4 -19 -12 -18 -19 2 -6 -12
-26 -29 -44 -18 -17 -33 -35 -33 -40 0 -6 -9 -12 -20 -15 -11 -3 -20 -12 -20
-21 0 -9 -7 -16 -15 -16 -8 0 -15 -4 -15 -10 0 -5 -16 -26 -35 -46 -19 -19
-35 -44 -35 -55 0 -10 -9 -24 -20 -31 -11 -7 -20 -18 -20 -25 0 -7 -4 -13 -9
-13 -20 0 -41 13 -41 25 0 7 -9 15 -20 18 -13 3 -18 10 -14 21 4 11 1 16 -10
16 -9 0 -16 7 -16 15 0 12 -13 15 -56 15 -46 0 -55 -3 -50 -15 4 -12 -3 -15
-30 -15 -29 0 -35 -3 -30 -16 4 -11 -1 -18 -14 -21 -11 -3 -25 -20 -32 -39 -7
-21 -17 -33 -25 -30 -8 4 -13 -3 -13 -19 0 -18 -5 -25 -20 -25 -16 0 -20 -7
-20 -34 0 -25 -5 -35 -20 -39 -16 -4 -20 -14 -20 -51 0 -44 12 -61 23 -33 4 7
8 3 12 -10 4 -12 17 -23 29 -25 11 -2 20 -7 18 -13 -1 -6 27 -12 63 -15 66 -5
93 -22 43 -28 -20 -2 -28 -9 -28 -23 0 -14 -7 -19 -30 -19 -20 0 -30 -5 -30
-15 0 -8 -12 -18 -27 -21 -15 -4 -34 -13 -41 -21 -7 -7 -26 -13 -42 -13 -22 0
-28 -4 -24 -15 5 -12 -3 -15 -36 -15 -37 0 -41 -2 -35 -20 6 -17 2 -20 -28
-20 -26 0 -36 -5 -40 -20 -3 -11 -12 -20 -21 -20 -12 0 -16 -10 -16 -34 0 -40
11 -46 81 -46 42 0 49 3 47 18 -3 15 7 17 80 20 61 2 82 6 82 16 0 18 22 26
71 26 25 0 38 4 36 12 -1 7 12 15 31 18 18 3 32 7 30 10 -5 9 27 46 46 53 11
5 16 13 12 22 -3 9 1 18 9 21 8 4 15 12 15 20 0 7 9 18 20 24 12 6 20 21 20
36 0 17 7 28 20 31 11 3 20 12 20 19 0 8 5 14 10 14 6 0 10 7 10 15 0 8 5 15
10 15 6 0 10 9 10 20 0 11 7 20 15 20 8 0 15 8 15 18 0 10 9 24 20 32 11 8 20
25 20 37 0 13 6 23 14 23 7 0 16 9 19 20 5 18 14 20 106 20 83 0 101 3 101 15
0 10 10 15 30 15 23 0 30 4 30 20 0 11 7 20 15 20 8 0 15 7 15 15 0 8 7 15 15
15 8 0 15 8 15 19 0 10 9 21 20 24 28 7 29 101 1 116 -10 6 -21 24 -24 41 -4
18 -13 30 -22 30 -8 0 -15 9 -15 20 0 13 -7 20 -20 20 -11 0 -20 7 -20 15 0
11 -12 15 -46 15 -25 0 -43 -4 -39 -9z"/>
<path d="M22110 8925 c0 -9 -9 -15 -25 -15 -20 0 -25 -5 -25 -23 0 -13 -9 -32
-20 -42 -11 -10 -20 -24 -20 -32 0 -7 -7 -13 -15 -13 -8 0 -17 -14 -21 -36 -4
-19 -13 -38 -20 -41 -19 -7 -18 -69 1 -77 8 -3 15 -12 15 -19 0 -8 14 -17 30
-20 17 -4 30 -11 30 -17 0 -13 37 -50 50 -50 6 0 10 -16 10 -35 0 -19 -5 -35
-11 -35 -5 0 -7 -5 -4 -10 3 -6 -5 -14 -18 -19 -13 -5 -27 -17 -30 -25 -4 -9
-16 -16 -28 -16 -15 0 -19 -5 -15 -15 4 -12 -3 -15 -35 -15 -32 0 -39 -3 -37
-17 2 -12 -4 -19 -19 -21 -14 -2 -23 -10 -23 -22 0 -10 -9 -20 -20 -23 -17 -4
-20 -14 -20 -56 l0 -51 55 0 c39 0 54 4 53 13 -2 8 13 13 45 15 37 2 47 7 43
17 -4 11 7 16 44 21 33 4 50 11 50 20 0 8 9 14 20 14 13 0 20 7 20 20 0 13 7
20 20 20 13 0 20 7 20 19 0 10 6 21 14 24 8 3 17 19 21 36 4 17 15 33 26 36
13 4 19 15 19 36 0 19 5 29 15 29 11 0 15 12 15 44 0 24 3 58 7 77 5 28 7 30
14 14 5 -14 8 -6 8 26 1 30 -4 51 -14 59 -9 7 -15 29 -15 51 0 28 -4 39 -15
39 -9 0 -18 12 -21 30 -5 23 -12 30 -30 30 -17 0 -24 6 -24 20 0 16 -7 20 -35
20 -24 0 -35 5 -35 15 0 9 -9 15 -25 15 -16 0 -25 -6 -25 -15z"/>
<path d="M17830 8720 c0 -5 6 -10 13 -11 6 0 1 -5 -12 -10 -15 -6 -21 -14 -17
-25 4 -10 0 -18 -13 -21 -14 -3 -20 -17 -24 -51 -3 -25 -10 -48 -16 -50 -6 -2
-11 -21 -11 -43 0 -26 -7 -46 -20 -59 -11 -11 -20 -27 -20 -35 0 -8 -7 -15
-15 -15 -8 0 -17 -14 -21 -35 -4 -25 -11 -35 -25 -35 -12 0 -19 -7 -19 -20 0
-11 -4 -20 -10 -20 -5 0 -19 -9 -30 -20 -11 -11 -27 -20 -36 -20 -8 0 -12 -4
-9 -10 3 -5 -6 -12 -20 -16 -14 -3 -25 -12 -25 -20 0 -9 -12 -14 -35 -14 -29
0 -35 -4 -33 -17 2 -14 -5 -19 -38 -21 -39 -3 -42 -6 -48 -37 -4 -18 -13 -36
-21 -39 -9 -3 -15 -19 -15 -41 l0 -35 85 0 c69 0 85 3 85 15 0 12 13 15 60 15
52 0 60 2 58 18 -2 13 5 18 30 20 19 2 32 9 32 17 0 8 11 17 25 21 14 3 25 12
25 20 0 8 9 14 20 14 13 0 20 7 20 20 0 11 6 20 14 20 14 0 29 24 31 50 0 8 6
14 13 13 8 -2 12 11 12 37 0 33 3 40 19 40 17 0 20 8 23 53 2 43 6 51 21 49
15 -2 17 6 17 58 0 44 4 60 14 60 18 0 29 73 20 139 l-7 51 -48 0 c-27 0 -49
-4 -49 -10z"/>
<path d="M21228 7619 c-10 -10 -18 -23 -18 -28 0 -5 -9 -11 -20 -14 -11 -3
-20 -12 -20 -21 0 -9 -8 -16 -20 -16 -13 0 -20 -7 -20 -20 0 -13 -7 -20 -20
-20 -13 0 -20 -7 -20 -20 0 -15 -7 -20 -26 -20 -14 0 -23 -4 -19 -10 4 -6 -7
-13 -24 -16 -17 -4 -31 -12 -31 -19 0 -7 -9 -15 -20 -18 -11 -3 -20 -12 -20
-21 0 -11 -9 -16 -30 -16 -24 0 -30 -4 -28 -17 2 -12 -4 -19 -18 -21 -12 -2
-24 -12 -27 -23 -3 -11 -14 -19 -26 -19 -12 0 -21 -6 -21 -15 0 -10 -10 -15
-31 -15 -23 0 -30 -4 -25 -15 3 -10 -3 -17 -19 -21 -14 -3 -25 -12 -25 -20 0
-8 -10 -14 -26 -14 -19 0 -25 -4 -20 -15 4 -11 -2 -15 -24 -15 -23 0 -30 -4
-30 -20 0 -15 -7 -20 -25 -20 -18 0 -25 -5 -25 -20 0 -16 -7 -20 -30 -20 -22
0 -28 -4 -24 -15 4 -9 -3 -16 -19 -20 -14 -4 -28 -13 -31 -21 -3 -8 -17 -14
-32 -14 -18 0 -25 -4 -21 -14 4 -9 -4 -16 -24 -20 -17 -3 -29 -12 -29 -21 0
-8 -8 -15 -19 -15 -10 0 -21 -9 -24 -20 -3 -14 -14 -20 -31 -20 -16 0 -26 -6
-26 -15 0 -8 -11 -17 -24 -21 -14 -3 -27 -12 -30 -20 -3 -8 -19 -14 -36 -14
-24 0 -30 -4 -28 -17 2 -12 -4 -19 -19 -21 -13 -2 -23 -10 -23 -18 0 -9 -11
-14 -30 -14 -23 0 -30 -4 -30 -20 0 -13 -7 -20 -19 -20 -10 0 -21 -9 -24 -20
-3 -13 -14 -20 -30 -20 -14 0 -27 -7 -31 -15 -3 -8 -14 -15 -25 -15 -10 0 -21
-9 -24 -20 -3 -14 -14 -20 -31 -20 -16 0 -26 -6 -26 -15 0 -8 -9 -15 -20 -15
-13 0 -20 -7 -20 -20 0 -16 -7 -20 -30 -20 -20 0 -30 -5 -30 -15 0 -8 -11 -17
-24 -21 -14 -3 -27 -12 -30 -20 -3 -8 -17 -14 -32 -14 -19 0 -25 -4 -21 -14 4
-10 -4 -17 -24 -21 -16 -4 -29 -13 -29 -21 0 -9 -11 -14 -30 -14 -24 0 -30 -4
-28 -17 2 -12 -4 -19 -18 -21 -12 -2 -24 -12 -27 -23 -3 -13 -14 -19 -31 -19
-16 0 -26 -6 -26 -15 0 -9 -9 -15 -24 -15 -15 0 -26 -7 -29 -20 -3 -14 -14
-20 -31 -20 -15 0 -25 -5 -24 -12 2 -8 -9 -14 -24 -16 -16 -2 -28 -9 -28 -18
0 -8 -11 -19 -25 -24 -14 -5 -25 -14 -25 -19 0 -5 -15 -11 -32 -13 -21 -2 -33
-8 -33 -18 0 -8 -10 -16 -22 -18 -13 -2 -23 -10 -23 -18 0 -8 -13 -17 -30 -20
-16 -4 -30 -13 -30 -20 0 -8 -10 -14 -25 -14 -16 0 -25 -6 -25 -15 0 -9 -13
-18 -31 -22 -20 -4 -28 -10 -25 -19 4 -10 -3 -14 -19 -14 -18 0 -25 -5 -25
-20 0 -15 -7 -20 -29 -20 -20 0 -30 -6 -34 -20 -3 -12 -14 -20 -26 -20 -12 0
-21 -6 -21 -15 0 -10 -10 -15 -31 -15 -24 0 -30 -4 -25 -15 4 -11 -3 -17 -24
-22 -17 -3 -30 -12 -30 -19 0 -9 -11 -14 -30 -14 -23 0 -30 -4 -30 -20 0 -13
-7 -20 -19 -20 -10 0 -21 -9 -24 -20 -3 -14 -14 -20 -31 -20 -16 0 -26 -6 -26
-14 0 -8 -11 -17 -25 -20 -14 -4 -24 -12 -22 -19 1 -7 -12 -13 -31 -15 -24 -2
-32 -7 -28 -18 4 -10 -3 -14 -25 -14 -23 0 -29 -4 -27 -17 2 -12 -4 -19 -18
-21 -12 -2 -24 -12 -27 -23 -3 -13 -14 -19 -32 -19 -14 0 -24 -4 -21 -9 3 -4
-8 -21 -24 -37 -16 -16 -30 -35 -30 -41 0 -7 -7 -13 -15 -13 -8 0 -15 -9 -15
-20 0 -11 -7 -20 -15 -20 -8 0 -15 -7 -15 -15 0 -8 -9 -15 -20 -15 -13 0 -20
-7 -20 -20 0 -11 -6 -20 -14 -20 -13 0 -29 -28 -31 -55 0 -5 -9 -9 -19 -7 -15
3 -17 -1 -12 -22 5 -19 3 -26 -9 -26 -8 0 -15 -6 -15 -14 0 -8 -9 -18 -20 -21
-16 -5 -20 -15 -20 -56 0 -42 -3 -49 -20 -49 -13 0 -20 -7 -20 -20 0 -11 -5
-20 -11 -20 -6 0 -9 -7 -5 -15 3 -9 0 -15 -9 -15 -8 0 -15 -7 -15 -15 0 -8 -8
-24 -17 -35 -10 -12 -18 -29 -19 -38 -3 -45 -5 -52 -18 -52 -8 0 -16 -16 -20
-40 -3 -22 -10 -40 -15 -40 -5 0 -12 -18 -16 -40 -4 -25 -12 -40 -21 -40 -9 0
-14 -12 -14 -35 0 -28 -4 -35 -20 -35 -18 0 -20 -7 -20 -56 0 -51 -2 -55 -20
-49 -18 6 -20 2 -21 -47 0 -29 -3 -47 -6 -40 -12 30 -21 6 -25 -72 -3 -62 -9
-88 -22 -101 -11 -11 -17 -31 -16 -54 3 -68 1 -83 -14 -78 -11 4 -15 -10 -18
-65 -3 -51 -8 -74 -21 -83 -13 -9 -17 -28 -17 -79 0 -63 -1 -67 -20 -61 -18 6
-20 2 -20 -49 0 -42 -4 -56 -14 -56 -10 0 -16 -13 -18 -37 -2 -31 -7 -37 -22
-35 -15 3 -18 -1 -13 -17 3 -12 1 -21 -4 -21 -5 0 -9 -7 -9 -15 0 -8 -4 -15
-10 -15 -5 0 -10 -9 -10 -20 0 -11 -7 -20 -15 -20 -9 0 -15 -9 -15 -25 0 -14
-9 -34 -20 -45 -11 -11 -20 -22 -20 -24 0 -10 -48 -56 -59 -56 -6 0 -11 -7
-11 -15 0 -8 -7 -15 -15 -15 -8 0 -15 -9 -15 -20 0 -13 -7 -20 -19 -20 -10 0
-21 -9 -24 -20 -3 -14 -14 -20 -31 -20 -15 0 -25 -5 -23 -12 1 -7 -8 -14 -19
-16 -12 -2 -24 -12 -27 -23 -3 -11 -14 -19 -26 -19 -12 0 -21 -6 -21 -15 0
-11 -11 -15 -36 -15 -31 0 -35 -3 -29 -20 5 -16 2 -20 -18 -20 -16 0 -26 -7
-30 -20 -3 -14 -14 -20 -31 -20 -16 0 -26 -6 -26 -15 0 -10 -10 -15 -30 -15
-19 0 -33 -7 -40 -20 -7 -13 -21 -20 -40 -20 -20 0 -30 -5 -30 -15 0 -11 -11
-15 -41 -15 -36 0 -40 -2 -34 -20 6 -17 2 -20 -28 -20 -26 0 -36 -5 -40 -20
-4 -15 -14 -20 -40 -20 -26 0 -36 -5 -40 -20 -4 -15 -14 -20 -40 -20 -22 0
-37 -6 -41 -15 -4 -11 -20 -15 -57 -15 -41 0 -50 -3 -45 -15 4 -12 -6 -15 -59
-15 -58 0 -65 -2 -65 -20 0 -18 -7 -20 -76 -20 -62 0 -75 -3 -71 -14 8 -21
-14 -26 -114 -26 -70 0 -87 -3 -83 -14 7 -18 -37 -26 -143 -26 -46 0 -82 -4
-79 -9 10 -15 -35 -21 -174 -21 -78 0 -129 -4 -122 -9 26 -16 -18 -21 -198
-21 -160 0 -180 -2 -189 -17 -9 -16 -37 -18 -320 -21 -277 -3 -341 -8 -298
-25 6 -3 -334 -5 -758 -5 -423 0 -764 2 -757 5 39 16 -5 23 -145 24 -156 0
-198 6 -191 24 2 6 -38 11 -94 13 -78 2 -98 6 -98 17 0 12 -15 15 -64 15 -70
0 -99 7 -90 21 3 5 -13 9 -36 9 -45 0 -84 16 -75 31 4 5 -14 9 -40 9 -38 0
-48 4 -52 19 -4 14 -15 21 -42 23 -28 2 -35 7 -33 21 2 13 -4 17 -28 17 -20 0
-30 5 -30 15 0 8 -9 15 -20 15 -11 0 -20 6 -20 14 0 7 -9 16 -20 19 -15 4 -20
14 -20 40 0 20 -5 37 -12 39 -6 2 -13 37 -16 86 -3 57 -8 82 -17 82 -7 0 -17
17 -22 38 l-9 37 -54 0 c-55 0 -55 0 -58 -32 -2 -19 -9 -33 -16 -33 -10 0 -15
-27 -18 -106 -2 -62 -8 -108 -15 -112 -6 -4 -12 -53 -14 -125 -4 -99 -7 -121
-22 -131 -15 -12 -17 -35 -17 -210 0 -129 3 -195 10 -191 12 8 30 -36 30 -76
0 -19 5 -29 14 -29 10 0 16 -13 18 -37 2 -29 7 -38 21 -37 9 1 17 -2 17 -6 0
-11 48 -60 60 -60 9 0 14 -14 11 -32 0 -5 8 -8 20 -8 12 0 23 -8 26 -20 4 -14
14 -20 34 -20 22 0 29 -5 29 -20 0 -16 7 -20 35 -20 24 0 35 -5 35 -15 0 -11
11 -15 38 -15 39 0 64 -11 63 -26 -1 -5 24 -11 54 -14 30 -3 54 -9 53 -15 -2
-6 40 -12 105 -15 63 -3 111 -10 115 -16 5 -7 82 -13 227 -17 219 -5 288 -13
235 -28 -14 -4 207 -7 490 -7 283 0 504 3 490 7 l-25 7 25 8 c14 4 134 10 267
13 133 3 240 9 238 13 -8 14 56 20 201 20 110 0 143 3 142 13 -2 9 29 13 120
17 69 3 122 9 121 15 -1 17 35 24 135 24 83 1 97 3 92 16 -5 13 10 15 99 15
63 0 105 4 105 10 0 6 -5 10 -11 10 -5 0 -7 5 -4 10 3 6 44 10 91 10 75 0 85
2 82 18 -3 15 7 17 82 20 55 2 80 6 70 12 -21 13 29 30 91 30 28 0 48 4 45 9
-9 14 20 21 81 21 45 0 54 3 49 15 -4 12 6 15 60 15 56 0 64 2 62 18 -3 14 6
17 53 20 47 2 58 6 62 22 4 17 14 20 66 20 48 0 59 3 55 14 -4 11 7 16 42 22
27 4 54 13 62 20 7 8 32 14 54 14 32 0 39 3 34 15 -4 12 4 15 40 15 37 0 47 4
51 20 4 16 14 20 44 20 32 0 39 3 39 20 0 17 7 20 40 20 25 0 39 4 38 12 -2 6
11 16 27 22 17 6 34 16 38 23 4 7 22 13 39 13 22 0 29 4 25 14 -4 9 4 16 24
20 17 3 29 12 29 21 0 11 10 15 36 15 28 0 35 3 30 15 -4 11 3 17 23 21 17 4
31 14 34 25 3 12 14 19 30 19 14 0 27 7 31 15 3 8 15 15 27 15 15 0 19 5 15
15 -3 10 3 17 19 21 14 3 25 12 25 20 0 8 9 14 20 14 13 0 20 7 20 20 0 11 7
20 15 20 8 0 15 7 15 15 0 8 9 15 20 15 13 0 20 7 20 20 0 13 7 20 20 20 13 0
20 7 20 20 0 11 7 20 15 20 8 0 15 7 15 15 0 8 6 15 14 15 7 0 16 9 19 20 3
11 12 20 21 20 9 0 16 7 16 15 0 8 4 15 9 15 5 0 15 16 22 35 7 19 19 35 26
35 7 0 13 9 13 20 0 13 7 20 20 20 13 0 20 7 20 20 0 11 7 20 15 20 8 0 17 14
21 35 3 20 12 35 20 35 8 0 14 9 14 20 0 11 7 20 15 20 12 0 15 -13 14 -62 -1
-67 -15 -188 -18 -150 0 12 -5 22 -11 22 -6 0 -10 -87 -10 -240 0 -210 2 -240
16 -248 12 -7 18 -29 22 -81 3 -47 9 -71 17 -71 7 0 15 -19 18 -47 3 -27 11
-50 21 -55 10 -6 16 -22 16 -43 0 -28 4 -35 20 -35 17 0 20 -7 20 -40 0 -29 4
-40 15 -40 17 0 61 -41 57 -53 -1 -4 5 -10 13 -13 8 -4 15 -12 15 -19 0 -8 10
-15 23 -17 15 -2 21 -9 19 -20 -2 -14 4 -18 28 -18 23 0 30 -4 30 -20 0 -18 7
-20 55 -20 44 0 53 -3 49 -15 -5 -13 11 -15 110 -15 96 0 116 3 116 15 0 11
12 15 45 15 38 0 45 3 45 20 0 16 7 20 30 20 23 0 30 4 30 20 0 13 7 20 19 20
10 0 21 9 24 20 3 11 12 20 21 20 9 0 16 7 16 15 0 8 9 15 20 15 11 0 20 7 20
15 0 8 7 15 15 15 8 0 15 9 15 20 0 11 6 20 14 20 7 0 16 9 19 20 3 11 12 20
21 20 14 0 22 25 17 53 -1 5 8 11 19 14 11 3 20 12 20 19 0 8 4 14 9 14 5 0
16 18 25 40 9 22 20 40 26 40 5 0 10 9 10 20 0 11 6 20 14 20 8 0 16 7 20 15
3 8 12 15 21 15 8 0 15 9 15 20 0 13 7 20 20 20 11 0 20 7 20 15 0 8 6 15 14
15 7 0 16 9 19 20 4 14 14 20 33 20 15 0 24 3 21 7 -4 3 -2 12 4 20 9 10 47
13 155 13 110 0 143 3 141 13 -1 7 12 13 36 15 29 2 37 7 33 18 -3 9 3 16 19
20 14 3 25 12 25 20 0 8 10 14 26 14 20 0 25 4 20 16 -4 11 1 18 14 21 11 3
20 12 20 19 0 8 7 17 15 20 8 4 15 10 15 15 0 11 49 59 60 59 6 0 10 6 10 14
0 7 9 16 20 19 15 4 20 14 20 36 0 20 5 31 14 31 9 0 17 15 21 40 4 25 12 40
21 40 9 0 14 11 14 31 0 22 5 32 20 36 16 4 20 14 20 44 0 32 3 39 20 39 18 0
20 7 20 64 0 45 4 65 14 69 10 4 15 29 17 84 3 59 9 84 22 97 14 14 17 35 17
105 0 103 9 159 21 139 5 -7 9 82 9 203 0 231 5 279 26 279 11 0 14 39 14 215
0 193 2 215 18 224 14 8 17 25 18 108 0 84 3 98 18 101 14 3 16 14 14 75 l-3
72 -52 3 c-48 3 -53 1 -53 -17 0 -14 -6 -21 -20 -21 -17 0 -20 -7 -20 -40 0
-33 -3 -40 -20 -40 -15 0 -20 -7 -20 -27 0 -40 -11 -74 -21 -67 -5 3 -9 -13
-9 -35 0 -30 -5 -43 -20 -51 -14 -7 -20 -21 -20 -44 0 -19 -9 -43 -20 -56 -11
-13 -20 -36 -20 -52 0 -18 -5 -28 -15 -28 -10 0 -15 -11 -16 -35 -2 -57 -4
-60 -22 -57 -14 2 -17 -6 -17 -52 0 -36 -5 -58 -14 -63 -8 -5 -15 -32 -18 -70
-5 -67 -13 -86 -28 -63 -6 9 -10 -153 -10 -432 0 -441 0 -448 -20 -448 -17 0
-20 -7 -20 -49 0 -34 -4 -51 -15 -55 -9 -3 -15 -19 -15 -41 0 -24 -4 -35 -15
-35 -8 0 -15 -7 -15 -15 0 -9 -9 -15 -25 -15 -14 0 -28 -7 -31 -15 -4 -8 -10
-15 -16 -15 -5 0 -6 4 -3 10 3 5 -4 12 -17 15 -36 9 -313 1 -310 -9 5 -12 -19
-26 -45 -26 -14 0 -23 -6 -23 -15 0 -9 -9 -15 -21 -15 -15 0 -19 -4 -15 -16 4
-11 -1 -18 -14 -21 -11 -3 -20 -12 -20 -20 0 -8 -9 -17 -20 -20 -11 -3 -20
-12 -20 -20 0 -8 -9 -17 -19 -20 -11 -3 -22 -11 -25 -19 -3 -8 -15 -14 -27
-14 -15 0 -19 -5 -15 -15 4 -11 -1 -15 -19 -15 -18 0 -25 -5 -25 -20 0 -16 -7
-20 -30 -20 -24 0 -30 -4 -28 -17 2 -15 -5 -19 -39 -21 -28 -2 -43 -8 -43 -17
0 -21 -24 -25 -143 -25 -124 0 -157 6 -157 26 0 10 -13 14 -40 14 -33 0 -40 3
-40 20 0 16 -7 20 -30 20 -23 0 -30 4 -30 20 0 13 -7 20 -19 20 -10 0 -19 6
-18 13 1 35 -5 47 -23 47 -17 0 -20 7 -20 40 0 29 -4 40 -15 40 -12 0 -15 17
-15 96 0 81 -2 95 -15 90 -13 -5 -15 10 -13 102 0 59 3 92 5 75 2 -18 8 -33
13 -33 5 0 9 150 10 351 0 193 3 355 6 360 3 5 10 7 15 4 5 -4 9 38 9 103 0
94 3 113 20 135 14 18 20 40 20 79 0 70 8 98 26 91 11 -4 14 12 14 86 0 72 3
91 14 91 20 0 29 52 21 117 -6 50 -5 55 14 60 19 5 21 13 21 84 0 64 3 79 15
79 11 0 15 12 15 49 0 40 3 50 20 54 11 3 20 12 20 21 0 11 9 16 29 16 20 0
30 6 34 20 4 15 14 20 38 20 18 0 29 3 26 7 -10 10 13 33 33 33 10 0 20 7 24
15 3 8 17 15 32 15 18 0 25 4 21 14 -6 15 12 26 44 26 10 0 19 7 19 15 0 10
10 15 30 15 24 0 30 4 28 18 -2 12 5 18 22 20 13 2 30 13 38 23 7 10 24 19 38
19 14 0 23 5 21 13 -1 7 11 13 30 15 23 2 30 7 26 18 -3 10 4 16 25 20 17 4
33 12 36 20 3 8 17 14 31 14 14 0 25 6 25 14 0 7 14 16 30 20 18 3 30 12 30
21 0 10 10 15 29 15 20 0 30 6 34 20 3 13 14 20 30 20 16 0 26 7 30 20 3 14
14 20 31 20 15 0 25 5 24 13 -2 7 9 13 25 15 19 2 27 8 24 17 -4 8 5 15 24 19
17 3 29 12 29 21 0 10 10 15 30 15 24 0 30 4 28 18 -2 12 5 18 23 20 17 2 29
11 32 23 3 13 14 19 31 19 16 0 26 6 26 15 0 10 10 15 30 15 24 0 30 4 28 18
-2 12 5 18 25 20 20 2 27 8 23 18 -4 10 3 14 24 14 23 0 30 4 30 20 0 15 7 20
29 20 20 0 30 6 34 20 3 12 14 20 26 20 12 0 20 6 19 13 -2 7 9 13 25 15 15 2
27 9 27 18 0 8 13 17 31 21 20 4 28 10 25 19 -4 10 3 14 25 14 23 0 29 4 27
18 -2 12 5 18 23 20 17 2 29 11 32 23 3 13 14 19 31 19 15 0 25 5 24 13 -2 6
9 13 23 15 17 2 29 11 32 23 3 10 12 19 21 19 9 0 16 7 16 15 0 11 11 15 35
15 29 0 35 4 33 18 -2 11 4 18 20 20 14 2 22 10 22 23 0 14 7 19 30 19 19 0
29 5 28 13 -2 7 9 13 25 15 19 2 27 9 27 23 0 14 7 19 26 19 14 0 23 4 19 10
-4 6 7 13 23 16 18 4 32 14 35 25 3 11 14 19 27 19 16 0 20 4 16 15 -4 12 3
15 30 15 28 0 34 4 32 18 -2 11 4 18 18 20 12 2 24 12 27 23 3 13 14 19 31 19
15 0 25 5 23 12 -1 7 8 14 19 16 12 2 24 12 27 23 3 11 14 19 26 19 12 0 21 6
21 15 0 10 10 15 30 15 23 0 30 4 30 20 0 13 7 20 20 20 13 0 20 7 20 20 0 16
7 20 31 20 17 0 28 4 24 10 -3 6 5 14 18 19 13 5 27 17 30 25 4 9 16 16 27 16
11 0 20 7 20 15 0 9 9 15 25 15 19 0 25 5 23 18 -2 12 5 18 25 20 19 2 27 9
27 23 0 12 7 19 19 19 10 0 21 9 24 20 3 12 14 20 26 20 12 0 21 4 21 10 0 5
11 12 25 16 14 3 25 12 25 20 0 8 9 14 20 14 13 0 20 7 20 20 0 15 7 20 25 20
15 0 25 6 25 15 0 7 6 18 13 22 8 4 16 16 20 25 4 12 12 15 23 11 14 -5 16 -3
11 11 -5 13 -1 19 13 23 11 3 20 10 20 17 0 6 12 22 26 35 14 13 23 30 20 38
-3 7 1 13 9 13 8 0 15 9 15 20 0 13 7 20 20 20 13 0 20 7 20 20 0 11 5 20 11
20 5 0 7 5 4 10 -3 6 1 10 9 10 10 0 16 9 16 25 0 15 6 25 15 25 8 0 17 14 21
35 3 20 12 35 20 35 11 0 14 18 14 75 l0 75 -52 -1 c-39 0 -58 -6 -70 -20z"/>
<path d="M21657 5483 c-39 -10 -67 -49 -67 -92 0 -28 -4 -41 -14 -41 -18 0
-27 -26 -20 -56 5 -20 2 -24 -15 -24 -19 0 -21 -6 -21 -55 0 -42 -3 -55 -15
-55 -10 0 -15 -11 -15 -35 0 -19 -4 -35 -10 -35 -5 0 -9 -6 -7 -12 1 -7 -4
-12 -10 -10 -9 1 -13 -15 -13 -58 0 -53 -2 -60 -20 -60 -18 0 -20 -7 -20 -75
0 -64 -3 -76 -20 -85 -18 -10 -20 -21 -20 -106 0 -75 -3 -96 -15 -100 -12 -5
-15 -26 -15 -103 0 -102 -7 -144 -21 -135 -5 3 -9 -42 -9 -100 0 -93 -3 -109
-20 -126 -18 -18 -20 -33 -20 -132 0 -125 -6 -158 -26 -158 -11 0 -14 -28 -14
-141 0 -136 -1 -140 -20 -134 -19 6 -20 2 -20 -149 0 -132 -2 -156 -15 -156
-13 0 -15 -41 -15 -305 0 -264 2 -305 15 -305 12 0 15 -14 15 -65 0 -54 3 -67
20 -77 13 -9 20 -24 20 -45 0 -26 4 -33 20 -33 16 0 20 -7 20 -35 0 -28 4 -35
20 -35 13 0 20 -7 20 -20 0 -13 7 -20 20 -20 13 0 20 -7 20 -20 0 -13 7 -20
20 -20 13 0 18 -5 14 -15 -4 -10 0 -15 15 -15 12 0 24 -6 27 -14 3 -8 18 -16
35 -20 17 -3 29 -12 29 -21 0 -13 21 -15 141 -15 86 0 138 4 134 9 -7 12 26
31 55 31 12 0 18 5 15 10 -4 6 8 13 25 16 21 5 29 11 26 20 -3 9 2 14 14 14
13 0 20 7 20 20 0 11 6 20 14 20 7 0 16 9 19 20 3 11 12 20 21 20 9 0 16 7 16
16 0 22 27 48 33 31 3 -6 6 3 6 21 1 18 10 41 21 52 11 11 20 28 20 39 0 10 9
21 20 24 17 4 20 14 20 56 0 39 4 51 15 51 11 0 15 12 15 44 0 49 8 78 19 71
11 -6 22 299 15 374 -5 42 -11 61 -20 61 -9 0 -14 12 -14 31 0 22 -5 32 -20
36 -11 3 -20 11 -20 18 0 7 -9 15 -20 18 -11 3 -20 12 -20 20 0 11 -12 17 -42
19 -35 2 -42 6 -40 21 2 13 -4 17 -28 17 -28 0 -30 -2 -30 -38 0 -26 -6 -42
-20 -52 -14 -10 -20 -26 -20 -51 0 -28 -5 -38 -20 -42 -17 -4 -20 -14 -20 -55
0 -42 -3 -52 -21 -57 -14 -5 -20 -14 -19 -33 5 -71 3 -73 -42 -70 -35 2 -42 6
-40 21 2 13 -4 17 -27 17 -23 0 -29 4 -25 15 4 10 0 15 -15 15 -13 0 -21 6
-21 16 0 9 -9 18 -20 21 -16 4 -18 11 -13 32 5 23 4 24 -9 13 -13 -10 -16 -8
-22 19 -3 17 -6 45 -6 61 0 16 -4 27 -9 24 -17 -11 -21 40 -21 265 0 248 8
388 21 367 5 -7 9 50 10 132 1 120 13 278 18 233 0 -7 6 -13 11 -13 6 0 10 53
10 139 0 149 7 212 21 189 5 -7 9 42 9 117 1 88 5 140 15 160 11 25 14 27 16
10 1 -11 5 51 8 138 6 136 9 160 24 168 15 9 17 26 17 125 0 93 3 116 15 120
11 5 15 21 15 60 l0 54 -32 -1 c-18 -1 -41 -3 -51 -6z"/>
<path d="M20580 3960 c0 -11 -6 -20 -14 -20 -7 0 -16 -14 -20 -31 -3 -16 -13
-37 -22 -46 -9 -9 -14 -26 -11 -40 2 -12 0 -23 -4 -23 -5 0 -9 -10 -9 -22 0
-19 -2 -20 -10 -8 -7 11 -10 0 -11 -40 -1 -30 -1 -59 0 -63 1 -5 -8 -11 -19
-14 -17 -4 -20 -14 -20 -53 0 -39 -4 -49 -20 -53 -17 -4 -20 -14 -20 -56 0
-37 -4 -53 -15 -57 -10 -4 -15 -20 -15 -48 0 -58 -9 -86 -26 -79 -10 4 -14 -4
-14 -33 0 -50 -10 -85 -21 -78 -5 3 -9 -12 -9 -33 0 -55 -10 -83 -26 -76 -11
4 -14 -4 -14 -34 0 -27 -6 -42 -20 -51 -15 -9 -20 -23 -20 -57 0 -35 -3 -43
-15 -39 -11 5 -15 -1 -15 -20 0 -16 -6 -26 -15 -26 -15 0 -20 -16 -17 -52 1
-12 -5 -18 -18 -18 -13 0 -20 -7 -20 -20 0 -11 -7 -20 -15 -20 -8 0 -15 -5
-15 -11 0 -16 -42 -59 -58 -59 -7 0 -10 -5 -7 -10 3 -6 -1 -13 -9 -16 -9 -3
-16 -12 -16 -20 0 -7 -12 -17 -26 -20 -16 -4 -23 -12 -20 -20 4 -10 -2 -14
-19 -14 -18 0 -25 -5 -25 -20 0 -13 -7 -20 -20 -20 -13 0 -20 -7 -20 -20 0
-13 -7 -20 -20 -20 -11 0 -19 -3 -19 -7 3 -21 -2 -33 -16 -33 -8 0 -15 -7 -15
-15 0 -9 -10 -15 -26 -15 -19 0 -25 -4 -20 -15 4 -11 -1 -15 -19 -15 -18 0
-25 -5 -25 -20 0 -14 -7 -20 -24 -20 -15 0 -26 -7 -29 -20 -3 -11 -12 -20 -21
-20 -9 0 -16 -7 -16 -16 0 -9 -9 -18 -19 -21 -11 -3 -22 -11 -25 -19 -3 -8
-17 -14 -32 -14 -19 0 -25 -4 -20 -15 4 -10 -1 -15 -15 -15 -12 0 -23 -8 -26
-20 -3 -11 -14 -20 -24 -20 -12 0 -19 -7 -19 -20 0 -13 -7 -20 -20 -20 -11 0
-20 -7 -20 -15 0 -9 -7 -18 -15 -21 -8 -4 -15 -12 -15 -19 0 -7 -9 -15 -20
-18 -11 -3 -20 -12 -20 -21 0 -9 -8 -16 -20 -16 -18 0 -20 -7 -20 -60 l0 -60
116 0 c111 0 115 1 109 20 -6 19 -2 20 68 20 66 0 75 2 80 20 4 17 14 20 61
20 43 0 54 3 50 14 -5 14 23 26 64 26 13 0 30 7 38 15 9 8 33 15 55 15 28 0
39 4 39 15 0 11 11 15 40 15 33 0 40 3 40 20 0 16 7 20 35 20 29 0 35 4 33 18
-2 12 5 18 25 20 15 2 27 9 27 17 0 8 9 17 20 20 11 4 18 11 15 16 -4 5 1 12
9 15 9 3 16 15 16 25 0 10 7 19 15 19 9 0 18 6 21 14 3 8 14 16 25 19 14 4 19
14 19 41 0 25 4 36 15 36 10 0 15 10 15 34 0 25 5 35 20 39 17 4 20 14 20 56
0 39 4 51 15 51 11 0 15 12 15 51 0 42 3 52 20 56 16 4 20 14 20 53 0 39 4 49
20 53 17 4 20 14 20 71 0 52 3 66 15 66 11 0 15 12 15 44 0 67 10 105 26 99
11 -4 14 10 14 71 0 59 3 78 15 82 12 5 15 24 15 88 0 68 3 86 20 104 17 18
20 35 20 112 0 83 1 90 20 90 19 0 20 7 20 105 0 87 3 105 15 105 12 0 15 16
15 80 l0 80 -60 0 c-53 0 -60 -2 -60 -20z"/>
<path d="M18660 1225 c0 -9 -9 -15 -24 -15 -19 0 -25 -7 -30 -35 -5 -22 -13
-35 -23 -35 -9 0 -13 -6 -9 -15 3 -9 -3 -19 -14 -25 -11 -6 -20 -20 -20 -30 0
-11 -9 -28 -20 -37 -11 -10 -20 -23 -20 -30 0 -7 -9 -13 -20 -13 -16 0 -20 -7
-20 -35 0 -24 -5 -35 -15 -35 -8 0 -15 -9 -15 -20 0 -11 -6 -20 -14 -20 -15 0
-26 -21 -26 -51 0 -10 -7 -19 -15 -19 -8 0 -15 -7 -15 -15 0 -8 -4 -15 -9 -15
-5 0 -12 -10 -14 -22 -2 -13 -5 7 -6 44 -1 57 -4 68 -21 73 -11 3 -20 15 -20
26 0 10 -4 19 -10 19 -5 0 -10 7 -10 15 0 8 -4 15 -10 15 -5 0 -10 9 -10 20 0
13 -7 20 -20 20 -13 0 -20 7 -20 20 0 13 -7 20 -20 20 -11 0 -20 6 -20 14 0 8
-9 18 -20 21 -11 3 -20 13 -20 21 0 8 -9 14 -20 14 -11 0 -23 7 -26 15 -4 8
-15 15 -26 15 -11 0 -22 8 -25 20 -5 18 -14 20 -74 20 l-69 0 0 -35 c0 -28 -4
-35 -20 -35 -13 0 -20 -7 -20 -20 0 -11 -7 -20 -15 -20 -15 0 -20 -16 -17 -52
1 -12 -5 -18 -18 -18 -13 0 -20 -7 -20 -19 0 -11 -7 -26 -15 -35 -8 -8 -15
-20 -15 -26 0 -6 -18 -29 -40 -50 -22 -21 -40 -48 -40 -59 0 -12 -6 -21 -15
-21 -8 0 -15 -9 -15 -20 0 -13 -7 -20 -20 -20 -16 0 -20 -7 -20 -35 0 -24 -5
-35 -15 -35 -8 0 -15 -9 -15 -20 0 -11 -4 -20 -10 -20 -5 0 -10 -7 -10 -15 0
-8 -4 -15 -10 -15 -6 0 -10 -26 -10 -59 l0 -60 33 -3 c23 -2 31 -7 29 -20 -2
-12 6 -18 25 -20 15 -2 27 -8 26 -14 -1 -7 9 -15 22 -18 14 -4 25 -13 25 -21
0 -9 10 -15 25 -15 18 0 25 -5 25 -20 0 -15 7 -20 25 -20 15 0 25 -6 25 -14 0
-8 9 -17 19 -21 12 -3 18 -12 15 -20 -4 -8 3 -15 18 -17 13 -2 22 -9 21 -16
-2 -6 4 -12 12 -12 8 0 15 -4 15 -10 0 -5 18 -10 40 -10 22 0 40 5 40 10 0 6
11 10 24 10 13 0 26 7 30 15 3 8 15 15 27 15 15 0 19 4 15 16 -4 11 1 18 14
21 11 3 20 12 20 19 0 8 9 14 20 14 14 0 21 9 26 35 3 20 12 35 20 35 8 0 14
7 14 14 0 18 43 66 59 66 6 0 11 16 11 35 0 24 5 35 15 35 8 0 15 -9 15 -20 0
-15 7 -20 25 -20 15 0 25 -6 25 -14 0 -8 11 -17 25 -20 14 -4 25 -13 25 -21 0
-8 9 -15 20 -15 11 0 23 -7 26 -15 4 -8 13 -15 21 -15 8 0 17 -9 20 -19 3 -11
13 -21 24 -24 13 -3 17 -11 13 -21 -5 -12 0 -16 20 -16 16 0 26 -6 26 -15 0
-8 11 -17 25 -21 14 -3 25 -12 25 -20 0 -11 16 -14 65 -14 36 0 65 4 65 10 0
14 49 60 65 60 8 0 15 7 15 15 0 9 7 18 15 21 8 4 15 12 15 20 0 8 5 14 10 14
6 0 10 5 10 11 0 13 55 69 68 69 5 0 13 16 16 35 5 25 11 33 22 28 12 -4 14 0
8 21 -5 22 -3 26 15 26 17 0 21 6 21 35 0 24 5 35 15 35 13 0 15 21 15 125 0
102 -3 127 -15 131 -9 4 -15 19 -15 40 0 27 -4 34 -20 34 -11 0 -20 5 -20 11
0 14 -47 59 -61 59 -5 0 -9 9 -9 20 0 11 -7 20 -15 20 -8 0 -15 7 -15 15 0 9
-9 15 -21 15 -12 0 -23 8 -26 19 -3 12 -15 21 -32 23 -18 2 -25 8 -23 21 2 13
-4 17 -32 17 -27 0 -34 3 -30 15 5 11 -1 15 -20 15 -16 0 -26 -6 -26 -15z"/>
</g>
</svg>
